<?xml version="1.0" encoding="UTF-8" standalone="no"?>
<!-- Created with Inkscape (http://www.inkscape.org/) -->

<svg
   xmlns:dc="http://purl.org/dc/elements/1.1/"
   xmlns:cc="http://creativecommons.org/ns#"
   xmlns:rdf="http://www.w3.org/1999/02/22-rdf-syntax-ns#"
   xmlns:svg="http://www.w3.org/2000/svg"
   xmlns="http://www.w3.org/2000/svg"
   xmlns:sodipodi="http://sodipodi.sourceforge.net/DTD/sodipodi-0.dtd"
   xmlns:inkscape="http://www.inkscape.org/namespaces/inkscape"
   version="1.1"
   id="svg80"
   width="512"
   height="512"
   viewBox="0 0 512 512"
   sodipodi:docname="lantern.png.2018_09_26_16_13_41.0.svg"
   inkscape:version="0.92.2 2405546, 2018-03-11">
  <metadata
     id="metadata86">
    <rdf:RDF>
      <cc:Work
         rdf:about="">
        <dc:format>image/svg+xml</dc:format>
        <dc:type
           rdf:resource="http://purl.org/dc/dcmitype/StillImage" />
        <dc:title />
      </cc:Work>
    </rdf:RDF>
  </metadata>
  <defs
     id="defs84">
    <clipPath
       clipPathUnits="userSpaceOnUse"
       id="clipPath22">
      <circle
         style="fill:#ffffff;stroke:#ffffff;stroke-width:3.43741202;stroke-miterlimit:4;stroke-dasharray:none;stroke-opacity:1"
         id="circle24"
         cx="255.91879"
         cy="255.86855"
         r="248.2813" />
    </clipPath>
  </defs>
  <sodipodi:namedview
     pagecolor="#ffffff"
     bordercolor="#666666"
     borderopacity="1"
     objecttolerance="10"
     gridtolerance="10"
     guidetolerance="10"
     inkscape:pageopacity="0"
     inkscape:pageshadow="2"
     inkscape:window-width="1362"
     inkscape:window-height="729"
     id="namedview82"
     showgrid="false"
     inkscape:zoom="1.0183481"
     inkscape:cx="181.68694"
     inkscape:cy="245.71769"
     inkscape:window-x="0"
     inkscape:window-y="18"
     inkscape:window-maximized="0"
     inkscape:current-layer="svg80" />
  <g
     id="g3995"
     transform="translate(0.08121147,0.13145582)"
     inkscape:export-xdpi="97.529999"
     inkscape:export-ydpi="97.529999"
     clip-path="url(#clipPath22)">
    <path
       style="fill:#fdd446"
       d="M 226.66532,506.47259 C 118.8078,493.42666 30.898156,412.94168 9.0971469,307.27979 -19.43357,169.00134 70.924883,34.449898 210,8.1183026 234.35378,3.5073125 268.91579,2.8355328 293,6.5050364 416.85084,25.375122 508,131.14841 508,256 c 0,111.20498 -72.79484,209.21642 -179.29822,241.40827 -31.55591,9.53813 -69.93335,12.94736 -102.03646,9.06432 z"
       id="path4025"
       inkscape:connector-curvature="0" />
    <path
       style="fill:#fab54f"
       d="M 226.66532,506.47259 C 118.8078,493.42666 30.898156,412.94168 9.0971469,307.27979 -19.43357,169.00134 70.924883,34.449898 210,8.1183026 234.35378,3.5073125 268.91579,2.8355328 293,6.5050364 416.85084,25.375122 508,131.14841 508,256 c 0,111.20498 -72.79484,209.21642 -179.29822,241.40827 -31.55591,9.53813 -69.93335,12.94736 -102.03646,9.06432 z M 165,366.16667 c 0,-1.30208 -1.18877,-2.16804 -2.15579,-1.57039 C 161.80999,365.23547 162.70176,367 164.05902,367 164.57656,367 165,366.625 165,366.16667 Z M 225.81642,326.75 226.13284,324 H 207.06642 188 v 3.02207 3.02206 L 206.75,329.77207 225.5,329.5 Z M 273,327 c 0,-1.92793 -0.66667,-2 -18.5,-2 -17.83333,0 -18.5,0.0721 -18.5,2 0,1.92793 0.66667,2 18.5,2 17.83333,0 18.5,-0.0721 18.5,-2 z m 47,0 c 0,-1.92793 -0.66667,-2 -18.5,-2 -17.83333,0 -18.5,0.0721 -18.5,2 0,1.92793 0.66667,2 18.5,2 17.83333,0 18.5,-0.0721 18.5,-2 z m -94.24262,-55.25 c -0.33527,-47.61131 -0.42124,-49.49463 -2.58394,-56.60226 -2.8415,-9.3385 -5.57719,-14.7934 -9.47741,-18.89774 -8.66903,-9.12273 -18.69247,0.76739 -23.69079,23.37569 -1.79102,8.10113 -1.96384,12.90385 -1.9836,55.12431 L 188,321 h 19.05209 19.0521 z m 47,0 c -0.33509,-47.58618 -0.42226,-49.49792 -2.58016,-56.58864 -9.16938,-30.12984 -23.89034,-29.45699 -31.73062,1.45031 C 236.0213,226.1725 236,226.66879 236,273.62822 V 321 h 18.55209 18.5521 z M 320,274.56538 c 0,-49.06256 -0.28731,-52.89726 -4.95919,-66.1896 C 311.66503,198.77108 306.45973,193 301.17243,193 c -5.3847,0 -11.37953,8.83933 -15.34423,22.62496 -2.1907,7.61727 -2.27551,9.47072 -2.59098,56.62504 L 282.91108,321 H 301.45554 320 Z m 37.94612,34.48908 c 0.88369,-0.55908 2.14768,-0.53944 3.25,0.0505 1.48517,0.79484 1.80388,0.57557 1.80388,-1.24104 0,-1.21354 0.74474,-3.02937 1.65499,-4.03518 C 366.21642,302.10338 366.16853,302 363.8078,302 c -1.62388,0 -2.85137,-0.78257 -3.49699,-2.22947 l -0.99482,-2.22948 -1.19318,2.22948 C 357.35482,301.20552 355.99606,302 354.30983,302 c -2.60032,0 -2.60564,0.0157 -0.71482,2.10781 1.04775,1.15929 1.7642,2.95929 1.59213,4 -0.34174,2.0669 0.52061,2.36279 2.75898,0.94665 z m -204.51088,-1.94968 c 0.3043,-0.49236 -0.10473,-1.14771 -0.90896,-1.45632 -1.56267,-0.59966 -2.89724,0.64725 -1.83243,1.71206 0.90401,0.90401 2.09319,0.79308 2.74139,-0.25574 z m 240.33202,-25.30299 c -0.49947,-1.49841 -2.2337,-1.0686 -2.58991,0.64188 -0.22259,1.06885 0.17816,1.35714 1.29227,0.92962 0.8882,-0.34084 1.47214,-1.04801 1.29764,-1.5715 z M 361,253.58179 c 0,-0.23002 0.25086,-1.07195 0.55747,-1.87096 0.62421,-1.62667 -1.81427,-2.93325 -3.94696,-2.11486 C 355.60981,250.36371 356.85338,254 359.11663,254 360.15248,254 361,253.8118 361,253.58179 Z M 110.98469,252.25 c -0.0195,-0.95737 -1.94887,-3.97649 -1.96938,-3.08179 -0.008,0.36752 -0.28845,1.38002 -0.6223,2.25 -0.39831,1.03799 -0.0545,1.58179 1,1.58179 0.88385,0 1.6001,-0.3375 1.59168,-0.75 z m 38.71234,-2 c 0.0478,-2.75734 -1.71694,-4.47837 -3.27027,-3.18922 -1.60883,1.33521 -0.83759,3.67146 1.40838,4.26629 0.91567,0.24251 1.70236,0.49313 1.74819,0.55693 0.0458,0.0638 0.097,-0.6715 0.1137,-1.634 z M 130.4701,223.80442 c 2.02168,0.92114 2.17392,0.7842 1.72705,-1.55344 -0.32882,-1.72009 0.0921,-2.98933 1.27928,-3.85741 1.63481,-1.1954 1.57263,-1.34315 -0.8177,-1.94309 -1.42288,-0.35712 -2.89467,-1.61707 -3.27064,-2.79989 l -0.68357,-2.15059 -0.96987,2.17111 c -0.53343,1.19411 -2.09246,2.45286 -3.46451,2.79723 -2.3,0.57726 -2.3718,0.76184 -0.92028,2.36576 0.98048,1.08342 1.34486,2.6173 0.96594,4.06626 -0.56376,2.15585 -0.4416,2.23733 1.66438,1.11024 1.60524,-0.85909 2.92402,-0.91965 4.48992,-0.20618 z M 382.5,211.16667 c 0,-1.80866 -1.9573,-1.47847 -2.3455,0.39568 -0.21599,1.04271 0.15888,1.49986 1,1.21948 0.74002,-0.24667 1.3455,-0.9735 1.3455,-1.61516 z M 162,197.5 c 0,-0.825 -0.42344,-1.5 -0.94098,-1.5 -1.26098,0 -2.1641,1.56159 -1.36517,2.36052 C 160.82004,199.4867 162,199.04641 162,197.5 Z m 198.57438,-33.19416 c -0.10985,-0.74846 -0.50902,-1.34846 -0.88705,-1.33333 -0.37803,0.0151 -1.12321,0.0275 -1.65595,0.0275 -0.53273,0 -0.73837,0.6 -0.45696,1.33333 0.67249,1.75248 3.25773,1.72879 2.99996,-0.0275 z"
       id="path4023"
       inkscape:connector-curvature="0" />
    <path
       style="fill:#f59055"
       d="M 226.66532,506.47259 C 118.8078,493.42666 30.898156,412.94168 9.0971469,307.27979 -19.43357,169.00134 70.924883,34.449898 210,8.1183026 234.35378,3.5073125 268.91579,2.8355328 293,6.5050364 416.85084,25.375122 508,131.14841 508,256 c 0,111.20498 -72.79484,209.21642 -179.29822,241.40827 -31.55591,9.53813 -69.93335,12.94736 -102.03646,9.06432 z M 165.19449,364.79449 C 163.92744,363.52744 162,364.61332 162,366.5942 c 0,1.19136 0.40659,1.25857 2.10736,0.34834 1.43276,-0.76679 1.78077,-1.45441 1.08713,-2.14805 z M 230,245.5 V 157 h -25 -25 v 88.5 88.5 h 25 25 z m 43,81.5 v -3 h -18.5 c -15.77778,0 -18.5,-0.22072 -18.5,-1.5 0,-1.27928 2.72222,-1.5 18.5,-1.5 H 273 v -47.47158 c 0,-40.44213 -0.24468,-48.58511 -1.65239,-54.99157 -2.00916,-9.1436 -7.86766,-21.26722 -11.55932,-23.92091 -8.45586,-6.07836 -16.22277,1.60326 -22.12706,21.88406 -1.91419,6.5751 -2.05977,10.23229 -2.39829,60.25 L 234.90254,330 H 253.95127 273 Z m 47.81955,-0.25 c -0.31681,-2.23071 -0.48028,-2.25233 -19.06955,-2.52207 L 283,323.95587 V 326.47793 329 h 19.06955 19.06955 z m -0.0562,-53.5 c -0.34183,-45.40914 -0.46638,-48.13378 -2.54058,-55.57857 C 313.50705,200.74568 308.25695,193 301.5002,193 c -6.65689,0 -12.66524,9.2214 -16.5409,25.38638 -1.78453,7.4431 -1.94587,12.0184 -1.95229,55.36362 L 283,321 h 19.06141 19.0614 z m 42.4747,35.21496 c -0.30334,-1.58682 0.18055,-3.27003 1.29366,-4.5 1.71522,-1.8953 1.70216,-1.96496 -0.36825,-1.96496 -1.18058,0 -2.70857,-0.9 -3.39553,-2 -0.68696,-1.1 -1.56045,-2 -1.94109,-2 -0.38064,0 -0.97771,0.9 -1.32684,2 -0.41933,1.32118 -1.51303,2 -3.22238,2 -2.44348,0 -2.49542,0.10185 -0.93261,1.82874 0.91025,1.00581 1.65499,2.81438 1.65499,4.01905 0,1.81956 0.41091,2.08718 2.42756,1.58103 1.33516,-0.3351 3.24766,-0.13236 4.25,0.45054 1.00234,0.5829 1.87254,1.07351 1.93377,1.09023 0.0612,0.0167 -0.10675,-1.11036 -0.37328,-2.50463 z m -209.80168,-2.56792 c -0.88683,-1.43491 -2.7179,-0.58652 -3.00857,1.39396 -0.20124,1.37108 0.11175,1.49061 1.69063,0.64562 1.06567,-0.57033 1.65874,-1.48814 1.31794,-2.03958 z m 240.75643,-23.3635 c 0.38104,-0.53156 0.19576,-1.56536 -0.41173,-2.29734 -0.90154,-1.08629 -1.25577,-1.09245 -1.92749,-0.0335 -1.88533,2.97209 0.31086,5.16045 2.33922,2.33087 z M 361.80803,251.93579 C 362.79123,250.36143 362.75086,250 361.59181,250 c -0.78383,0 -1.57514,-0.41855 -1.75848,-0.93011 -0.67936,-1.89567 -3.737,1.58248 -3.19917,3.63914 0.64799,2.47792 3.40038,2.06657 5.17387,-0.77324 z M 110.80963,251.25 c -0.40593,-2.10784 -2.18068,-1.97493 -2.63295,0.19718 C 107.98803,252.35316 108.53927,253 109.5,253 c 1.02996,0 1.52043,-0.6554 1.30963,-1.75 z M 150.13054,250 c 0.3468,-0.825 -0.0426,-2.26776 -0.86529,-3.20614 -1.8205,-2.07644 -3.86718,-0.53083 -3.84858,2.90638 0.009,1.60883 0.55909,2.14642 2.04762,2 1.11964,-0.11013 2.31945,-0.87524 2.66625,-1.70024 z m -20.19628,-26.03518 c 2.79979,1.4984 3.17229,1.3079 2.52051,-1.28902 -0.36918,-1.47092 -0.0131,-2.79747 0.96993,-3.61331 1.86659,-1.54912 1.16669,-3.06249 -1.41633,-3.06249 -1.0433,0 -2.1783,-0.96004 -2.56118,-2.16638 -0.68739,-2.16579 -0.68803,-2.16583 -2.31739,-0.14498 -0.89639,1.11177 -2.46798,2.31697 -3.49242,2.67821 -1.59726,0.56324 -1.67023,0.88864 -0.51218,2.28401 0.74275,0.89495 1.20656,2.72519 1.0307,4.06719 -0.28697,2.18994 -0.10638,2.32581 1.76218,1.32579 1.45722,-0.77988 2.66231,-0.80359 4.01618,-0.079 z M 383,211.66667 c 0,-1.85884 -0.95764,-2.62016 -2.53462,-2.01501 C 378.794,210.29303 379.71694,213 381.60699,213 382.37314,213 383,212.4 383,211.66667 Z M 161.80963,197.25 c -0.40593,-2.10784 -2.18068,-1.97493 -2.63295,0.19718 C 158.98803,198.35316 159.53927,199 160.5,199 c 1.02996,0 1.52043,-0.6554 1.30963,-1.75 z M 361,164.55902 c 0,-1.74279 -1.63967,-2.89975 -2.95633,-2.08601 C 356.71273,163.29558 357.91145,166 359.60699,166 360.37314,166 361,165.35156 361,164.55902 Z"
       id="path4021"
       inkscape:connector-curvature="0" />
    <path
       style="fill:#ee6467"
       d="M 226.66532,506.47259 C 118.8078,493.42666 30.898156,412.94168 9.0971469,307.27979 -19.43357,169.00134 70.924883,34.449898 210,8.1183026 234.35378,3.5073125 268.91579,2.8355328 293,6.5050364 416.85084,25.375122 508,131.14841 508,256 c 0,111.20498 -72.79484,209.21642 -179.29822,241.40827 -31.55591,9.53813 -69.93335,12.94736 -102.03646,9.06432 z M 164.90284,364.38293 c -0.9857,-1.1877 -1.38776,-1.22307 -2.04926,-0.18026 -1.62978,2.56923 -1.02129,3.95745 1.21099,2.76277 1.68403,-0.90126 1.83854,-1.37726 0.83827,-2.58251 z M 242.33634,334.33769 280,333.67537 v -88.21393 -88.21393 l -49.40567,-0.74107 c -27.17312,-0.40759 -49.89812,-0.43672 -50.5,-0.0647 -1.2136,0.75005 -1.63655,176.68275 -0.42766,177.89163 0.83922,0.83923 15.13687,0.84022 62.66967,0.004 z M 320.73706,276.75 c -0.33852,-50.01771 -0.4841,-53.6749 -2.39829,-60.25 -4.26408,-14.64681 -9.28733,-22.48805 -15.3638,-23.98277 -7.05367,-1.73509 -15.33254,10.99556 -18.94996,29.13985 C 282.15937,231.0148 282,235.62535 282,280.24042 c 0,26.63443 0.3,48.72625 0.66667,49.09291 C 283.03333,329.7 291.83026,330 302.2154,330 h 18.88206 z M 283,322.5 c 0,-1.27928 2.72222,-1.5 18.5,-1.5 15.77778,0 18.5,0.22072 18.5,1.5 0,1.27928 -2.72222,1.5 -18.5,1.5 -15.77778,0 -18.5,-0.22072 -18.5,-1.5 z m 80.40053,-14.04029 c -0.42781,-1.70455 -0.078,-3.15861 1.06323,-4.41967 1.61582,-1.78546 1.58552,-1.89588 -0.60644,-2.20971 -1.26899,-0.18168 -2.85216,-1.42735 -3.51815,-2.76816 l -1.21088,-2.43783 -1.22466,2.68783 c -0.8527,1.87146 -1.9823,2.68783 -3.71913,2.68783 -2.35327,0 -2.40079,0.10352 -0.83949,1.82874 0.91025,1.00581 1.65499,2.81438 1.65499,4.01905 0,1.81956 0.41091,2.08718 2.42756,1.58103 1.33516,-0.3351 3.24766,-0.13236 4.25,0.45054 2.46945,1.43609 2.44481,1.45639 1.72297,-1.41965 z M 153.1928,307.53354 c 0.38104,-0.53156 0.19576,-1.56536 -0.41173,-2.29734 -0.90154,-1.08629 -1.25577,-1.09245 -1.92749,-0.0335 -1.88533,2.97209 0.31086,5.16045 2.33922,2.33087 z m 241,-25 c 0.38104,-0.53156 0.19576,-1.56536 -0.41173,-2.29734 -0.90154,-1.08629 -1.25577,-1.09245 -1.92749,-0.0335 -1.88533,2.97209 0.31086,5.16045 2.33922,2.33087 z M 361.80803,251.93579 C 362.79123,250.36143 362.75086,250 361.59181,250 c -0.78383,0 -1.57514,-0.41855 -1.75848,-0.93011 -0.67936,-1.89567 -3.737,1.58248 -3.19917,3.63914 0.64799,2.47792 3.40038,2.06657 5.17387,-0.77324 z m -251.68147,-2.20923 c -0.74799,-0.74799 -1.26116,-0.53938 -1.73949,0.70715 -0.40827,1.06392 -0.12261,2.11574 0.71721,2.64088 1.72849,1.08083 2.59927,-1.77104 1.02228,-3.34803 z m 40.24159,-0.0264 c 0.70922,-2.71206 -2.18616,-5.02506 -4.00877,-3.20244 -0.68959,0.68958 -1.18603,2.15344 -1.1032,3.25301 0.20833,2.76561 4.38633,2.72428 5.11197,-0.0506 z m -23.67551,-25.79285 c 0.79019,-0.79019 1.65778,-0.79019 3.13426,0 2.91382,1.55943 3.28473,1.3856 2.62787,-1.23156 -0.37027,-1.47527 -0.012,-2.7984 0.98094,-3.62245 2.23835,-1.85766 1.93177,-3.05335 -0.7829,-3.05335 -1.46357,0 -2.72169,-0.8393 -3.342,-2.22947 l -0.99482,-2.22948 -1.19318,2.22948 C 126.46656,214.99674 125.04547,216 123.96482,216 c -2.2835,0 -2.54973,1.26968 -0.60471,2.88391 0.77381,0.6422 1.15463,2.20373 0.88343,3.62244 -0.50048,2.6181 0.60157,3.24854 2.4491,1.40101 z m 256.64419,-12.34275 c 0.59005,-1.53765 -1.07668,-2.54889 -3.02369,-1.83454 C 378.80276,210.28422 379.78848,213 381.5,213 c 0.70731,0 1.53389,-0.64593 1.83683,-1.43539 z M 163,197.07181 c 0,-1.09729 -2.61438,-2.12409 -3.40223,-1.33624 -0.32878,0.32877 -0.59777,1.4386 -0.59777,2.46628 0,1.55864 0.33168,1.69101 2,0.79815 1.1,-0.5887 2,-1.45639 2,-1.92819 z m 198,-32.51279 c 0,-1.74279 -1.63967,-2.89975 -2.95633,-2.08601 C 356.71273,163.29558 357.91145,166 359.60699,166 360.37314,166 361,165.35156 361,164.55902 Z M 333.64762,139.11834 C 332.20772,123.62565 325.15235,107.93927 315.11973,97.924829 306.98958,89.809411 300.91924,87.256301 286.84789,86.034042 275.41104,85.04062 268.26758,82.231803 263.01479,76.662833 261.1146,74.648275 258.75893,73 257.77995,73 256.80098,73 256,72.55 256,72 c 0,-0.55 0.43588,-1 0.96862,-1 0.53273,0 0.70959,-0.675 0.39301,-1.5 -0.83888,-2.186089 -1.71943,-1.857163 -3.61393,1.349969 -5.41778,9.17156 -14.42243,13.952971 -28.59559,15.184073 -14.29252,1.24147 -19.99112,3.702674 -28.6173,12.359687 -10.4501,10.487461 -16.27904,23.532151 -18.4046,41.187971 L 177.35752,146 h 78.46484 78.46484 z"
       id="path4019"
       inkscape:connector-curvature="0" />
    <path
       style="fill:#ed4c6d"
       d="M 226.66532,506.47259 C 126.71962,494.38363 43.611267,424.71059 14.584033,328.67639 0.4370518,281.87228 0.4370518,230.12772 14.584033,183.32361 39.556677,100.70369 105.83829,35.847569 188.53434,13.11437 208.04194,7.7517182 232.76902,4 248.60595,4 H 255 v 27.5 c 0,17.666667 -0.35758,27.5 -1,27.5 -2.00855,0 -5,4.073681 -5,6.80887 0,1.544879 0.66069,3.682379 1.4682,4.75 2.00257,2.647641 1.97136,2.764786 -1.7182,6.449851 -5.30995,5.303474 -12.52686,8.063675 -23.59789,9.025321 -14.29252,1.24147 -19.99112,3.702674 -28.6173,12.359687 -4.99093,5.008771 -8.16888,9.319981 -10.76685,14.606271 -3.79813,7.72837 -7.7486,21.92083 -7.76095,27.88197 -0.004,1.86008 -0.95102,4.9094 -2.10481,6.77627 -1.96705,3.18276 -1.99677,3.54848 -0.47694,5.86803 C 176.31672,154.88682 177.48573,156 178.02305,156 178.65171,156 179,187.90795 179,245.5 V 335 l 76.75,1.2e-4 76.75,1.2e-4 -0.26599,-88.58397 -0.266,-88.58397 3.016,-2.81736 c 3.50659,-3.27565 3.68918,-4.34175 1.1743,-6.85663 -1.26775,-1.26775 -2.04559,-4.03559 -2.49598,-8.88166 -1.45485,-15.65356 -8.46954,-31.29701 -18.5426,-41.351821 C 306.98958,89.809411 300.91924,87.256301 286.84789,86.034042 274.51547,84.96283 267.24252,81.8631 261.65042,75.294875 c -1.71238,-2.011278 -1.73093,-2.341848 -0.25,-4.456161 2.97281,-4.244283 1.89503,-9.117451 -2.5216,-11.401379 L 256,57.94864 V 30.81985 3.6910599 l 12.85517,0.6148993 c 115.0219,5.5018259 212.65995,90.1379588 234.50042,203.2732908 24.60707,127.46657 -50.6468,252.3465 -174.65381,289.82902 -31.55591,9.53813 -69.93335,12.94736 -102.03646,9.06432 z m 33.76325,-105.04402 c 1.98081,-1.9808 2.03771,-6.79671 0.0993,-8.40543 -1.29616,-1.07572 -1.29616,-1.39771 0,-2.69388 C 261.33755,389.5196 262,388.13373 262,387.24957 262,384.31101 264.38261,379 265.70089,379 266.50931,379 267,377.72743 267,375.63084 c 0,-3.11639 0.28134,-3.41566 3.75,-3.98899 2.0625,-0.34091 7.35,-0.6265 11.75,-0.63465 14.86856,-0.0275 31.81215,-3.93237 35.12386,-8.09468 0.61812,-0.77689 1.42446,-3.49184 1.79188,-6.03323 0.36742,-2.5414 1.50067,-6.2539 2.51835,-8.25 L 323.7844,345 h -67.75619 -67.75619 l 2.36399,4.66948 c 1.30019,2.56821 2.36399,5.97279 2.36399,7.56574 0,4.37087 1.72972,6.75768 6.39179,8.81994 5.71768,2.5292 20.1776,4.94484 29.59963,4.94484 4.25119,0 9.81724,0.28617 12.36901,0.63592 4.47397,0.61323 4.63957,0.756 4.63957,4 0,1.85025 0.37797,3.36408 0.83994,3.36408 0.46197,0 1.40883,1.9125 2.10414,4.25 0.69531,2.3375 1.68888,5.33096 2.20793,6.65213 0.62053,1.57944 0.58486,2.761 -0.10414,3.45 -1.5688,1.5688 -1.26274,6.29014 0.52356,8.07644 C 252.43571,402.29286 254.42857,403 256,403 c 1.57143,0 3.56429,-0.70714 4.42857,-1.57143 z M 252.2,400.8 c -0.66,-0.66 -1.2,-2.145 -1.2,-3.3 0,-2.83005 1.8555,-4.5 5,-4.5 3.1445,0 5,1.66995 5,4.5 0,2.83005 -1.8555,4.5 -5,4.5 -1.43,0 -3.14,-0.54 -3.8,-1.2 z m 0,-11 c -2.31856,-2.31856 -1.18841,-3.3 3.8,-3.3 2.8254,0 5,0.45667 5,1.05 0,1.84803 -2.32169,3.45 -5,3.45 -1.43,0 -3.14,-0.54 -3.8,-1.2 z m 0.37003,-5.68669 c -0.30141,-0.48768 0.13536,-1.45384 0.97059,-2.14703 1.17217,-0.97281 2.09503,-0.99769 4.04538,-0.10905 1.38973,0.6332 2.24984,1.59936 1.91137,2.14702 -0.76268,1.23405 -6.17936,1.31932 -6.92734,0.10906 z m -2.9096,-3.55584 C 249.15477,379.23975 250.13065,379 256,379 c 5.86935,0 6.84523,0.23975 6.33957,1.55747 -0.38826,1.0118 -1.16557,1.29963 -2.21861,0.82153 -0.89153,-0.40477 -2.74596,-0.73595 -4.12096,-0.73595 -1.375,0 -3.22943,0.33118 -4.12096,0.73595 -1.05304,0.4781 -1.83035,0.19027 -2.21861,-0.82153 z m -84.75759,-16.17454 c -0.9857,-1.1877 -1.38776,-1.22307 -2.04926,-0.18026 -1.62978,2.56923 -1.02129,3.95745 1.21099,2.76277 1.68403,-0.90126 1.83854,-1.37726 0.83827,-2.58251 z m 198.49769,-55.92322 c -0.42781,-1.70455 -0.078,-3.15861 1.06323,-4.41967 1.61582,-1.78546 1.58552,-1.89588 -0.60644,-2.20971 -1.26899,-0.18168 -2.85216,-1.42735 -3.51815,-2.76816 l -1.21088,-2.43783 -1.22466,2.68783 c -0.8527,1.87146 -1.9823,2.68783 -3.71913,2.68783 -2.35327,0 -2.40079,0.10352 -0.83949,1.82874 0.91025,1.00581 1.65499,2.81438 1.65499,4.01905 0,1.81956 0.41091,2.08718 2.42756,1.58103 1.33516,-0.3351 3.24766,-0.13236 4.25,0.45054 2.46945,1.43609 2.44481,1.45639 1.72297,-1.41965 z M 153.1928,307.53354 c 0.38104,-0.53156 0.19576,-1.56536 -0.41173,-2.29734 -0.90154,-1.08629 -1.25577,-1.09245 -1.92749,-0.0335 -1.88533,2.97209 0.31086,5.16045 2.33922,2.33087 z m 241,-25 c 0.38104,-0.53156 0.19576,-1.56536 -0.41173,-2.29734 -0.90154,-1.08629 -1.25577,-1.09245 -1.92749,-0.0335 -1.88533,2.97209 0.31086,5.16045 2.33922,2.33087 z M 361.80803,251.93579 C 362.79123,250.36143 362.75086,250 361.59181,250 c -0.78383,0 -1.57514,-0.41855 -1.75848,-0.93011 -0.67936,-1.89567 -3.737,1.58248 -3.19917,3.63914 0.64799,2.47792 3.40038,2.06657 5.17387,-0.77324 z m -251.68147,-2.20923 c -0.74799,-0.74799 -1.26116,-0.53938 -1.73949,0.70715 -0.40827,1.06392 -0.12261,2.11574 0.71721,2.64088 1.72849,1.08083 2.59927,-1.77104 1.02228,-3.34803 z m 40.24159,-0.0264 c 0.70922,-2.71206 -2.18616,-5.02506 -4.00877,-3.20244 -0.68959,0.68958 -1.18603,2.15344 -1.1032,3.25301 0.20833,2.76561 4.38633,2.72428 5.11197,-0.0506 z m -23.67551,-25.79285 c 0.79019,-0.79019 1.65778,-0.79019 3.13426,0 2.91382,1.55943 3.28473,1.3856 2.62787,-1.23156 -0.37027,-1.47527 -0.012,-2.7984 0.98094,-3.62245 2.23835,-1.85766 1.93177,-3.05335 -0.7829,-3.05335 -1.46357,0 -2.72169,-0.8393 -3.342,-2.22947 l -0.99482,-2.22948 -1.19318,2.22948 C 126.46656,214.99674 125.04547,216 123.96482,216 c -2.2835,0 -2.54973,1.26968 -0.60471,2.88391 0.77381,0.6422 1.15463,2.20373 0.88343,3.62244 -0.50048,2.6181 0.60157,3.24854 2.4491,1.40101 z m 256.64419,-12.34275 c 0.59005,-1.53765 -1.07668,-2.54889 -3.02369,-1.83454 C 378.80276,210.28422 379.78848,213 381.5,213 c 0.70731,0 1.53389,-0.64593 1.83683,-1.43539 z M 163,197.07181 c 0,-1.09729 -2.61438,-2.12409 -3.40223,-1.33624 -0.32878,0.32877 -0.59777,1.4386 -0.59777,2.46628 0,1.55864 0.33168,1.69101 2,0.79815 1.1,-0.5887 2,-1.45639 2,-1.92819 z m 198,-32.51279 c 0,-1.74279 -1.63967,-2.89975 -2.95633,-2.08601 C 356.71273,163.29558 357.91145,166 359.60699,166 360.37314,166 361,165.35156 361,164.55902 Z M 251.03518,69.065741 C 250.46583,68.001899 250,66.426899 250,65.565741 250,63.357454 253.61941,60 256,60 c 2.54519,0 6,3.413678 6,5.928571 0,1.060715 -0.75705,2.685618 -1.68233,3.610898 -1.57643,1.576434 -1.7689,1.565194 -3.05775,-0.178572 -1.29958,-1.75827 -1.43014,-1.764386 -2.36737,-0.110897 -1.29109,2.27778 -2.57248,2.216571 -3.85737,-0.184259 z"
       id="path4017"
       inkscape:connector-curvature="0" />
    <path
       style="fill:#707686"
       d="M 226.66532,506.47259 C 126.71962,494.38363 43.611267,424.71059 14.584033,328.67639 0.4370518,281.87228 0.4370518,230.12772 14.584033,183.32361 39.556677,100.70369 105.83829,35.847569 188.53434,13.11437 208.04194,7.7517182 232.76902,4 248.60595,4 H 255 v 27.5 c 0,17.666667 -0.35758,27.5 -1,27.5 -2.00855,0 -5,4.073681 -5,6.80887 0,1.544879 0.66069,3.682379 1.4682,4.75 2.00257,2.647641 1.97136,2.764786 -1.7182,6.449851 -5.30995,5.303474 -12.52686,8.063675 -23.59789,9.025321 -14.29252,1.24147 -19.99112,3.702674 -28.6173,12.359687 -4.99093,5.008771 -8.16888,9.319981 -10.76685,14.606271 -3.79813,7.72837 -7.7486,21.92083 -7.76095,27.88197 -0.004,1.86008 -0.9395,4.89076 -2.07921,6.73485 -2.33544,3.77882 -1.88525,6.94452 1.12335,7.89942 C 178.96381,156.12329 179,157.7955 179,245.56739 179,303.11557 178.6517,335 178.02305,335 c -0.53732,0 -1.71407,1.125 -2.61501,2.5 -1.51741,2.31587 -1.51741,2.68413 0,5 1.41812,2.16432 2.37544,2.5 7.12971,2.5 5.12239,0 5.62494,0.21853 7.47404,3.25 1.09032,1.7875 2.22307,4.825 2.51723,6.75 1.09226,7.14774 1.88243,8.45637 6.47098,10.71691 5.6406,2.77883 19.85696,5.28309 29.99142,5.28309 4.25119,0 9.81724,0.28617 12.36901,0.63592 4.47397,0.61323 4.63957,0.756 4.63957,4 0,1.85025 0.37797,3.36408 0.83994,3.36408 0.46197,0 1.40883,1.9125 2.10414,4.25 0.69531,2.3375 1.68888,5.33096 2.20793,6.65213 0.62053,1.57944 0.58486,2.761 -0.10414,3.45 -1.5688,1.5688 -1.26274,6.29014 0.52356,8.07644 C 252.43571,402.29286 254.42857,403 256,403 c 1.57143,0 3.56429,-0.70714 4.42857,-1.57143 1.98081,-1.9808 2.03771,-6.79671 0.0993,-8.40543 -1.29616,-1.07572 -1.29616,-1.39771 0,-2.69388 C 261.33755,389.5196 262,388.13373 262,387.24957 262,384.31101 264.38261,379 265.70089,379 266.50931,379 267,377.72743 267,375.63084 c 0,-3.11639 0.28134,-3.41566 3.75,-3.98899 2.0625,-0.34091 7.35,-0.6265 11.75,-0.63465 14.90434,-0.0276 32.53965,-4.11777 35.11343,-8.14388 0.47934,-0.74983 1.41977,-4.00288 2.08984,-7.22901 C 321.59639,346.51973 322.99161,345 329.46635,345 c 4.46751,0 5.69387,-0.39066 6.97695,-2.22251 2.08904,-2.98252 2.02089,-3.30996 -1.4433,-6.93491 l -3,-3.13921 v -87.87312 -87.87313 l 2.48078,-1.13032 c 1.36443,-0.62167 2.73936,-1.94503 3.0554,-2.94078 C 338.14182,150.97781 336.50324,147 335.11155,147 c -0.44994,0 -1.09569,-3.28416 -1.435,-7.29812 -1.33264,-15.76516 -8.37024,-31.60893 -18.55682,-41.777051 C 306.98958,89.809411 300.91924,87.256301 286.84789,86.034042 274.51547,84.96283 267.24252,81.8631 261.65042,75.294875 c -1.71238,-2.011278 -1.73093,-2.341848 -0.25,-4.456161 2.97281,-4.244283 1.89503,-9.117451 -2.5216,-11.401379 L 256,57.94864 V 30.81985 3.6910599 l 12.85517,0.6148993 c 115.0219,5.5018259 212.65995,90.1379588 234.50042,203.2732908 24.60707,127.46657 -50.6468,252.3465 -174.65381,289.82902 -31.55591,9.53813 -69.93335,12.94736 -102.03646,9.06432 z M 164.90284,364.38293 c -0.9857,-1.1877 -1.38776,-1.22307 -2.04926,-0.18026 -1.62978,2.56923 -1.02129,3.95745 1.21099,2.76277 1.68403,-0.90126 1.83854,-1.37726 0.83827,-2.58251 z m 198.49769,-55.92322 c -0.42781,-1.70455 -0.078,-3.15861 1.06323,-4.41967 1.61582,-1.78546 1.58552,-1.89588 -0.60644,-2.20971 -1.26899,-0.18168 -2.85216,-1.42735 -3.51815,-2.76816 l -1.21088,-2.43783 -1.22466,2.68783 c -0.8527,1.87146 -1.9823,2.68783 -3.71913,2.68783 -2.35327,0 -2.40079,0.10352 -0.83949,1.82874 0.91025,1.00581 1.65499,2.81438 1.65499,4.01905 0,1.81956 0.41091,2.08718 2.42756,1.58103 1.33516,-0.3351 3.24766,-0.13236 4.25,0.45054 2.46945,1.43609 2.44481,1.45639 1.72297,-1.41965 z M 153.1928,307.53354 c 0.38104,-0.53156 0.19576,-1.56536 -0.41173,-2.29734 -0.90154,-1.08629 -1.25577,-1.09245 -1.92749,-0.0335 -1.88533,2.97209 0.31086,5.16045 2.33922,2.33087 z m 241,-25 c 0.38104,-0.53156 0.19576,-1.56536 -0.41173,-2.29734 -0.90154,-1.08629 -1.25577,-1.09245 -1.92749,-0.0335 -1.88533,2.97209 0.31086,5.16045 2.33922,2.33087 z M 361.80803,251.93579 C 362.79123,250.36143 362.75086,250 361.59181,250 c -0.78383,0 -1.57514,-0.41855 -1.75848,-0.93011 -0.67936,-1.89567 -3.737,1.58248 -3.19917,3.63914 0.64799,2.47792 3.40038,2.06657 5.17387,-0.77324 z m -251.68147,-2.20923 c -0.74799,-0.74799 -1.26116,-0.53938 -1.73949,0.70715 -0.40827,1.06392 -0.12261,2.11574 0.71721,2.64088 1.72849,1.08083 2.59927,-1.77104 1.02228,-3.34803 z m 40.24159,-0.0264 c 0.70922,-2.71206 -2.18616,-5.02506 -4.00877,-3.20244 -0.68959,0.68958 -1.18603,2.15344 -1.1032,3.25301 0.20833,2.76561 4.38633,2.72428 5.11197,-0.0506 z m -23.67551,-25.79285 c 0.79019,-0.79019 1.65778,-0.79019 3.13426,0 2.91382,1.55943 3.28473,1.3856 2.62787,-1.23156 -0.37027,-1.47527 -0.012,-2.7984 0.98094,-3.62245 2.23835,-1.85766 1.93177,-3.05335 -0.7829,-3.05335 -1.46357,0 -2.72169,-0.8393 -3.342,-2.22947 l -0.99482,-2.22948 -1.19318,2.22948 C 126.46656,214.99674 125.04547,216 123.96482,216 c -2.2835,0 -2.54973,1.26968 -0.60471,2.88391 0.77381,0.6422 1.15463,2.20373 0.88343,3.62244 -0.50048,2.6181 0.60157,3.24854 2.4491,1.40101 z m 256.64419,-12.34275 c 0.59005,-1.53765 -1.07668,-2.54889 -3.02369,-1.83454 C 378.80276,210.28422 379.78848,213 381.5,213 c 0.70731,0 1.53389,-0.64593 1.83683,-1.43539 z M 163,197.07181 c 0,-1.09729 -2.61438,-2.12409 -3.40223,-1.33624 -0.32878,0.32877 -0.59777,1.4386 -0.59777,2.46628 0,1.55864 0.33168,1.69101 2,0.79815 1.1,-0.5887 2,-1.45639 2,-1.92819 z m 198,-32.51279 c 0,-1.74279 -1.63967,-2.89975 -2.95633,-2.08601 C 356.71273,163.29558 357.91145,166 359.60699,166 360.37314,166 361,165.35156 361,164.55902 Z M 252.2,400.8 c -0.66,-0.66 -1.2,-2.145 -1.2,-3.3 0,-2.83005 1.8555,-4.5 5,-4.5 3.1445,0 5,1.66995 5,4.5 0,2.83005 -1.8555,4.5 -5,4.5 -1.43,0 -3.14,-0.54 -3.8,-1.2 z m 0,-11 c -2.31856,-2.31856 -1.18841,-3.3 3.8,-3.3 2.8254,0 5,0.45667 5,1.05 0,1.84803 -2.32169,3.45 -5,3.45 -1.43,0 -3.14,-0.54 -3.8,-1.2 z m 0.37003,-5.68669 c -0.30141,-0.48768 0.13536,-1.45384 0.97059,-2.14703 1.17217,-0.97281 2.09503,-0.99769 4.04538,-0.10905 1.38973,0.6332 2.24984,1.59936 1.91137,2.14702 -0.76268,1.23405 -6.17936,1.31932 -6.92734,0.10906 z m -2.9096,-3.55584 C 249.15477,379.23975 250.13065,379 256,379 c 5.86935,0 6.84523,0.23975 6.33957,1.55747 -0.38826,1.0118 -1.16557,1.29963 -2.21861,0.82153 -0.89153,-0.40477 -2.74596,-0.73595 -4.12096,-0.73595 -1.375,0 -3.22943,0.33118 -4.12096,0.73595 -1.05304,0.4781 -1.83035,0.19027 -2.21861,-0.82153 z M 251.03518,69.065741 C 250.46583,68.001899 250,66.426899 250,65.565741 250,63.357454 253.61941,60 256,60 c 2.54519,0 6,3.413678 6,5.928571 0,1.060715 -0.75705,2.685618 -1.68233,3.610898 -1.57643,1.576434 -1.7689,1.565194 -3.05775,-0.178572 -1.29958,-1.75827 -1.43014,-1.764386 -2.36737,-0.110897 -1.29109,2.27778 -2.57248,2.216571 -3.85737,-0.184259 z"
       id="path4015"
       inkscape:connector-curvature="0" />
    <path
       style="fill:#ac5b5e"
       d="M 234.07522,506.96146 C 174.25896,501.18465 119.47088,475.50023 77.899209,433.74682 52.649636,408.38687 31.668364,375.68393 19.604803,342.88491 4.6689615,302.2766 0.5218228,255.78959 7.9968005,212.76598 26.131578,108.38791 108.26249,26.373486 213,8.0535299 222.98027,6.3078509 245.55201,4 252.64522,4 H 255 v 27.5 c 0,17.666667 -0.35758,27.5 -1,27.5 -2.00855,0 -5,4.073681 -5,6.80887 0,1.544879 0.66069,3.682379 1.4682,4.75 2.00257,2.647641 1.97136,2.764786 -1.7182,6.449851 -5.30995,5.303474 -12.52686,8.063675 -23.59789,9.025321 -14.29252,1.24147 -19.99112,3.702674 -28.6173,12.359687 -4.99093,5.008771 -8.16888,9.319981 -10.76685,14.606271 -3.79813,7.72837 -7.7486,21.92083 -7.76095,27.88197 -0.004,1.86008 -0.9395,4.89076 -2.07921,6.73485 -2.33544,3.77882 -1.88525,6.94452 1.12335,7.89942 C 178.96381,156.12329 179,157.7955 179,245.56739 179,303.11557 178.6517,335 178.02305,335 c -0.53732,0 -1.71407,1.125 -2.61501,2.5 -1.51741,2.31587 -1.51741,2.68413 0,5 1.41812,2.16432 2.37544,2.5 7.12971,2.5 5.12239,0 5.62494,0.21853 7.47404,3.25 1.09032,1.7875 2.22307,4.825 2.51723,6.75 1.09226,7.14774 1.88243,8.45637 6.47098,10.71691 5.6406,2.77883 19.85696,5.28309 29.99142,5.28309 4.25119,0 9.81724,0.28617 12.36901,0.63592 4.47397,0.61323 4.63957,0.756 4.63957,4 0,1.85025 0.37797,3.36408 0.83994,3.36408 0.46197,0 1.40883,1.9125 2.10414,4.25 0.69531,2.3375 1.68888,5.33096 2.20793,6.65213 0.62053,1.57944 0.58486,2.761 -0.10414,3.45 -1.5688,1.5688 -1.26274,6.29014 0.52356,8.07644 2.02104,2.02104 6.8361,2.02104 8.85714,0 1.98081,-1.9808 2.03771,-6.79671 0.0993,-8.40543 -1.29616,-1.07572 -1.29616,-1.39771 0,-2.69388 C 261.33755,389.5196 262,388.13373 262,387.24957 262,384.31101 264.38261,379 265.70089,379 266.50931,379 267,377.72743 267,375.63084 c 0,-3.11639 0.28134,-3.41566 3.75,-3.98899 2.0625,-0.34091 7.35,-0.6265 11.75,-0.63465 14.90434,-0.0276 32.53965,-4.11777 35.11343,-8.14388 0.47934,-0.74983 1.41977,-4.00288 2.08984,-7.22901 C 321.59639,346.51973 322.99161,345 329.46635,345 c 4.46751,0 5.69387,-0.39066 6.97695,-2.22251 2.08904,-2.98252 2.02089,-3.30996 -1.4433,-6.93491 l -3,-3.13921 v -87.87312 -87.87313 l 2.48078,-1.13032 c 1.36443,-0.62167 2.73936,-1.94503 3.0554,-2.94078 C 338.14182,150.97781 336.50324,147 335.11155,147 c -0.44994,0 -1.09569,-3.28416 -1.435,-7.29812 -1.33264,-15.76516 -8.37024,-31.60893 -18.55682,-41.777051 C 306.98958,89.809411 300.91924,87.256301 286.84789,86.034042 274.51547,84.96283 267.24252,81.8631 261.65042,75.294875 c -1.71238,-2.011278 -1.73093,-2.341848 -0.25,-4.456161 2.97281,-4.244283 1.89503,-9.117451 -2.5216,-11.401379 L 256,57.94864 V 30.97432 4 h 2.85478 C 266.39282,4 288.70632,6.2530313 299,8.0535299 324.0831,12.440892 343.54075,18.827116 367.5,30.536018 416.70668,54.583359 457.22982,95.09648 481.49216,144.5 c 8.91936,18.1618 13.54011,30.46984 17.96663,47.85671 9.22057,36.21735 10.73722,71.42877 4.59342,106.64329 C 485.19976,407.05699 398.95653,490.25455 290,505.493 c -13.94166,1.94985 -43.03113,2.71368 -55.92478,1.46846 z M 164.90284,364.38293 c -0.9857,-1.1877 -1.38776,-1.22307 -2.04926,-0.18026 -1.62978,2.56923 -1.02129,3.95745 1.21099,2.76277 1.68403,-0.90126 1.83854,-1.37726 0.83827,-2.58251 z m 198.58162,-55.43189 c -0.37937,-1.1953 5.5e-4,-3.04231 0.91187,-4.43317 1.47918,-2.2575 1.44373,-2.40104 -0.66707,-2.70104 -1.22609,-0.17425 -2.67347,-1.32933 -3.21639,-2.56683 -1.28894,-2.93794 -2.32452,-2.84864 -3.10672,0.26791 -0.34758,1.38485 -1.14365,2.45653 -1.76905,2.38152 -3.40665,-0.40862 -3.94392,0.10406 -2.16686,2.06769 1.06669,1.17867 1.5606,2.80696 1.23227,4.06248 -0.48704,1.86245 -0.22731,2.02494 2.33657,1.46182 1.58649,-0.34846 3.68922,-0.16526 4.67272,0.40711 2.4439,1.42224 2.51305,1.38528 1.77266,-0.94749 z m -210.08693,-1.54459 c 0.26597,-0.69312 -0.16466,-1.79822 -0.95697,-2.45578 C 151.34064,304.03781 151,304.03448 151,304.93657 c 0,0.64981 -0.40803,0.92929 -0.90674,0.62107 -0.49871,-0.30822 -0.69084,0.26522 -0.42695,1.27431 0.54642,2.08953 3.0046,2.46802 3.73122,0.5745 z M 394.1928,282.53354 c 0.38104,-0.53156 0.19576,-1.56536 -0.41173,-2.29734 -0.90154,-1.08629 -1.25577,-1.09245 -1.92749,-0.0335 -1.88533,2.97209 0.31086,5.16045 2.33922,2.33087 z M 361.66927,252.3183 c 0.91577,-1.15894 0.80737,-1.84166 -0.5,-3.14903 -1.50105,-1.50105 -1.82403,-1.51451 -3.20498,-0.13356 -0.84465,0.84465 -1.53572,2.53187 -1.53572,3.74938 0,1.75655 0.42037,2.08969 2.03572,1.61331 1.11964,-0.33019 2.56188,-1.26624 3.20498,-2.0801 z m -251.54271,-2.59174 c -0.74799,-0.74799 -1.26116,-0.53938 -1.73949,0.70715 -0.40827,1.06392 -0.12261,2.11574 0.71721,2.64088 1.72849,1.08083 2.59927,-1.77104 1.02228,-3.34803 z m 38.2453,1.85198 c 0.62047,0.23223 1.60844,-0.61847 2.19548,-1.89045 0.90333,-1.95733 0.74046,-2.46696 -1.05991,-3.3166 -1.48556,-0.70107 -2.44853,-0.65996 -3.19234,0.13629 -1.38775,1.48559 -1.45479,7.03192 -0.0682,5.64536 0.54827,-0.54827 1.50452,-0.80684 2.125,-0.5746 z m -21.67922,-27.67118 c 0.79019,-0.79019 1.65778,-0.79019 3.13426,0 2.91806,1.5617 3.2665,1.39202 2.76951,-1.3487 -0.25041,-1.38097 0.17544,-2.95435 0.98045,-3.62245 2.10555,-1.74745 1.73145,-2.93621 -0.92405,-2.93621 -1.46357,0 -2.72169,-0.8393 -3.342,-2.22947 l -0.99482,-2.22948 -1.19318,2.22948 C 126.46656,214.99674 125.04547,216 123.96482,216 c -2.2835,0 -2.54973,1.26968 -0.60471,2.88391 0.77381,0.6422 1.15463,2.20373 0.88343,3.62244 -0.50048,2.6181 0.60157,3.24854 2.4491,1.40101 z m 256.64419,-12.34275 c 0.59005,-1.53765 -1.07668,-2.54889 -3.02369,-1.83454 C 378.80276,210.28422 379.78848,213 381.5,213 c 0.70731,0 1.53389,-0.64593 1.83683,-1.43539 z M 162.55108,198.30606 c 1.59192,-1.59192 1.58117,-1.73495 -0.17857,-2.37487 -2.42078,-0.8803 -3.37251,-0.27983 -3.37251,2.12783 0,2.39076 1.31582,2.4823 3.55108,0.24704 z M 361,164.55902 c 0,-1.74279 -1.63967,-2.89975 -2.95633,-2.08601 C 356.71273,163.29558 357.91145,166 359.60699,166 360.37314,166 361,165.35156 361,164.55902 Z M 252.2,400.8 c -0.66,-0.66 -1.2,-2.145 -1.2,-3.3 0,-2.83005 1.8555,-4.5 5,-4.5 3.1445,0 5,1.66995 5,4.5 0,2.83005 -1.8555,4.5 -5,4.5 -1.43,0 -3.14,-0.54 -3.8,-1.2 z m 0,-11 c -2.31856,-2.31856 -1.18841,-3.3 3.8,-3.3 2.8254,0 5,0.45667 5,1.05 0,1.84803 -2.32169,3.45 -5,3.45 -1.43,0 -3.14,-0.54 -3.8,-1.2 z m 0.37003,-5.68669 c -0.30141,-0.48768 0.13536,-1.45384 0.97059,-2.14703 1.17217,-0.97281 2.09503,-0.99769 4.04538,-0.10905 1.38973,0.6332 2.24984,1.59936 1.91137,2.14702 -0.76268,1.23405 -6.17936,1.31932 -6.92734,0.10906 z m -2.9096,-3.55584 C 249.15477,379.23975 250.13065,379 256,379 c 5.86935,0 6.84523,0.23975 6.33957,1.55747 -0.38826,1.0118 -1.16557,1.29963 -2.21861,0.82153 -0.89153,-0.40477 -2.74596,-0.73595 -4.12096,-0.73595 -1.375,0 -3.22943,0.33118 -4.12096,0.73595 -1.05304,0.4781 -1.83035,0.19027 -2.21861,-0.82153 z M 251.03518,69.065741 C 250.46583,68.001899 250,66.426899 250,65.565741 250,63.357454 253.61941,60 256,60 c 2.54519,0 6,3.413678 6,5.928571 0,1.060715 -0.75705,2.685618 -1.68233,3.610898 -1.57643,1.576434 -1.7689,1.565194 -3.05775,-0.178572 -1.29958,-1.75827 -1.43014,-1.764386 -2.36737,-0.110897 -1.29109,2.27778 -2.57248,2.216571 -3.85737,-0.184259 z"
       id="path4013"
       inkscape:connector-curvature="0" />
    <path
       style="fill:#4a4f61"
       d="M 234.07522,506.96146 C 174.25896,501.18465 119.47088,475.50023 77.899209,433.74682 52.649636,408.38687 31.668364,375.68393 19.604803,342.88491 4.6689615,302.2766 0.5218228,255.78959 7.9968005,212.76598 26.131578,108.38791 108.26249,26.373486 213,8.0535299 222.98027,6.3078509 245.55201,4 252.64522,4 H 255 v 26.567152 26.567152 l -3.5,3.300925 c -4.0325,3.803134 -4.36225,6.198882 -1.37579,9.995547 l 2.12421,2.700494 -2.87421,3.025948 c -5.6746,5.974181 -12.58084,8.524388 -26.46879,9.773905 -17.4645,1.571304 -28.73222,9.816039 -37.43452,27.391317 -4.30807,8.70065 -8.42216,23.6851 -8.45776,30.80512 -0.007,1.44515 -0.68814,3.18775 -1.51314,3.87244 -2.32728,1.93147 -1.82555,5.74059 1,7.59196 l 2.5,1.63806 v 88.02032 88.02032 l -2.5,2.31692 c -5.19233,4.81209 -2.28112,9.41242 5.95642,9.41242 6.45424,0 7.97004,1.75949 10.04037,11.65463 0.80364,3.84102 2.11303,7.10149 3.18408,7.92861 C 200.65706,368.4261 221.10037,372 238.10595,372 H 245 v 3.5 c 0,1.925 0.37777,3.5 0.83948,3.5 1.00995,0 3.18906,4.54285 3.82253,7.96894 0.25108,1.35792 0.88461,2.98478 1.40786,3.61524 0.61644,0.74277 0.44723,2.11799 -0.48064,3.90648 -1.77004,3.41174 -0.7992,6.48601 2.67233,8.46227 5.39426,3.07084 11.59312,-3.47338 8.19811,-8.65483 -1.063,-1.62233 -1.27084,-2.8258 -0.62435,-3.61502 0.53302,-0.6507 1.47502,-3.07533 2.09333,-5.38808 0.61831,-2.31275 1.78731,-4.8681 2.59778,-5.67857 0.81046,-0.81046 1.47357,-2.85572 1.47357,-4.545 V 372 l 7.25,-0.0173 c 15.83597,-0.0378 33.1151,-2.67919 39.93215,-6.10414 4.5913,-2.30672 5.03916,-3.04252 5.95367,-9.78161 1.09813,-8.09218 3.30561,-10.48274 10.26157,-11.11258 7.90407,-0.7157 10.10206,-4.76343 5.10261,-9.39676 l -2.5,-2.31692 v -88.02032 -88.02032 l 2.5,-1.63806 c 2.80841,-1.84014 3.24702,-5.10903 1.01625,-7.574 -0.81606,-0.90174 -1.97263,-5.15449 -2.57016,-9.45057 -2.33385,-16.77978 -8.67046,-31.066 -17.96735,-40.508352 -7.82456,-7.946994 -14.65311,-11.027471 -26.88416,-12.127915 -13.89249,-1.249925 -20.79387,-3.799448 -26.47508,-9.78047 -2.66182,-2.802296 -2.75683,-3.156181 -1.2515,-4.66151 3.74694,-3.746945 2.93094,-8.936716 -1.90318,-12.104153 L 257,57.76998 V 30.88499 4 h 2.35478 C 266.44799,4 289.01973,6.3078509 299,8.0535299 324.0831,12.440892 343.54075,18.827116 367.5,30.536018 416.70668,54.583359 457.22982,95.09648 481.49216,144.5 c 8.91936,18.1618 13.54011,30.46984 17.96663,47.85671 9.22057,36.21735 10.73722,71.42877 4.59342,106.64329 C 485.19976,407.05699 398.95653,490.25455 290,505.493 c -13.94166,1.94985 -43.03113,2.71368 -55.92478,1.46846 z M 165.71896,366.0808 c 0.161,-2.13739 -1.76027,-3.29134 -3.59351,-2.15833 -1.63403,1.00988 -0.30335,4.07753 1.76873,4.07753 0.93975,0 1.74392,-0.84579 1.82478,-1.9192 z m 191.47327,-56.18368 c 1.51041,-0.80835 2.72829,-0.79873 4.56031,0.036 2.31795,1.05613 2.45663,0.97474 1.90878,-1.12022 -0.3931,-1.50321 0.0826,-2.9759 1.42184,-4.40141 l 2.01261,-2.14233 -2.96746,-0.59349 c -1.7769,-0.35538 -3.22736,-1.41238 -3.61527,-2.63457 -0.81293,-2.56131 -2.19252,-2.62633 -2.98149,-0.1405 -0.33177,1.04532 -1.76261,2.19157 -3.17963,2.54722 -2.46805,0.61944 -2.50362,0.72708 -0.84565,2.55912 1.16824,1.29089 1.52355,2.73812 1.0932,4.45278 -0.71271,2.83967 -0.37609,3.02629 2.59276,1.43741 z M 154,307.08333 c 0,-1.99565 -1.6787,-3.08947 -3.63949,-2.37144 -0.62672,0.2295 -0.91174,1.28821 -0.63337,2.35269 0.66979,2.56128 4.27286,2.5771 4.27286,0.0188 z M 394.68208,282.25 c 0.008,-0.9625 -0.46393,-2.06176 -1.0498,-2.4428 -1.48415,-0.96528 -3.62979,1.03571 -2.96585,2.76591 0.78212,2.03818 3.99713,1.77949 4.01565,-0.32311 z m -32.47495,-29.66667 c 0.20711,-1.14583 -0.43997,-2.88104 -1.43796,-3.85601 -1.57587,-1.53952 -1.89139,-1.57241 -2.39884,-0.25 -0.32137,0.83747 -1.26626,1.52268 -2.09976,1.52268 -1.21343,0 -1.2746,0.29022 -0.30692,1.4562 0.66469,0.8009 0.96458,1.8509 0.66643,2.33333 -0.29816,0.48242 0.74998,0.87714 2.32919,0.87714 2.12241,0 2.96951,-0.54337 3.24786,-2.08334 z M 111.23469,252.5 c 1.0818,-1.47246 0.92743,-2.22381 -0.57537,-2.80049 -2.01086,-0.77164 -3.81197,0.7391 -3.09833,2.59882 0.67076,1.74798 2.46527,1.84649 3.6737,0.20167 z m 39.34206,-2.88289 c 0.89188,-1.88988 0.7163,-2.40294 -1.11867,-3.26891 -3.04275,-1.43595 -5.41186,0.44274 -4.77296,3.78494 0.37979,1.98673 0.97272,2.46376 2.66119,2.14099 1.19489,-0.22842 2.64859,-1.42408 3.23044,-2.65702 z M 128.5,223.76178 c 0.55,0 1.82805,0.34231 2.84012,0.76068 1.54193,0.63742 1.78609,0.34843 1.50674,-1.78335 -0.195,-1.48803 0.45456,-3.41469 1.56487,-4.64157 1.88183,-2.0794 1.87556,-2.09754 -0.72481,-2.09754 -1.79909,0 -3.04485,-0.80503 -3.96584,-2.56282 l -1.3428,-2.56282 -1.1677,2.56282 c -0.8298,1.8212 -1.9422,2.56282 -3.84413,2.56282 -2.52954,0 -2.58559,0.10037 -1.02144,1.82874 0.91025,1.00581 1.65499,3.07895 1.65499,4.60699 0,2.25589 0.32903,2.64173 1.75,2.05215 0.9625,-0.39935 2.2,-0.7261 2.75,-0.7261 z M 383.3289,211.8503 c 0.46341,-1.77211 -1.80323,-3.29322 -3.41914,-2.29453 -0.50037,0.30925 -0.90976,1.33928 -0.90976,2.28896 0,2.27734 3.73356,2.28214 4.3289,0.006 z M 163.27286,198.06458 c 0.54433,-2.0815 -1.3477,-3.35683 -3.66235,-2.46861 C 157.66773,196.34148 158.822,200 161,200 c 0.97171,0 1.99449,-0.87094 2.27286,-1.93542 z m 197.99485,-33.31984 c 0.26493,-0.6904 -0.0551,-1.7567 -0.71116,-2.36956 -1.47865,-1.38126 -4.45213,0.47166 -3.81099,2.37482 0.54708,1.62393 3.89847,1.62003 4.52215,-0.005 z M 252.49632,399.99594 C 249.80267,397.01949 251.8157,393 256,393 c 4.1843,0 6.19733,4.01949 3.50368,6.99594 C 258.50617,401.09817 256.92951,402 256,402 c -0.92951,0 -2.50617,-0.90183 -3.50368,-2.00406 z m 0.15867,-10.82468 C 251.74474,388.16545 251,387.15295 251,386.92126 c 0,-0.23169 2.25,-0.42126 5,-0.42126 5.48055,0 5.89958,0.37592 3.17126,2.84501 -2.37688,2.15105 -4.46269,2.09544 -6.51627,-0.17375 z m -0.12452,-5.12196 c -0.36148,-0.58489 0.0136,-1.32083 0.83342,-1.63544 2.11797,-0.81274 6.13611,-0.1015 6.13611,1.08614 0,1.37848 -6.15716,1.86375 -6.96953,0.5493 z M 250,380.5 c 0,-1.16667 1.33333,-1.5 6,-1.5 4.66667,0 6,0.33333 6,1.5 0,1.69817 -1.56593,2.01136 -2.5,0.5 -0.33992,-0.55 -1.91492,-1 -3.5,-1 -1.58508,0 -3.16008,0.45 -3.5,1 -0.93407,1.51136 -2.5,1.19817 -2.5,-0.5 z M 251.54923,68.715479 C 249.89112,66.184881 249.88151,65.82979 251.40804,63.5 c 2.22057,-3.389012 6.94066,-3.423642 9.13998,-0.06706 1.24005,1.892551 1.34841,2.892066 0.48787,4.5 -1.30165,2.432157 -2.86592,2.673573 -3.67426,0.567058 -0.8125,-2.117342 -1.89393,-1.863204 -3.04458,0.715479 l -0.98857,2.215478 -1.77925,-2.715478 z"
       id="path4011"
       inkscape:connector-curvature="0" />
    <path
       style="fill:#2a3750"
       d="M 237,507.00455 C 177.60958,502.26233 123.71783,477.92868 81.298185,436.70077 42.063214,398.56807 17.006166,351.40763 8.0512571,298.84107 -1.5614077,242.41339 8.169839,184.53382 35.629076,134.81353 76.230402,61.296952 153.07593,11.333551 234.5,5.5117048 238.9,5.1971034 245.0875,4.7059239 248.25,4.4201947 L 254,3.900687 V 30.549134 57.19758 L 251,60 c -3.34972,3.129107 -3.96154,7.346466 -1.5318,10.55887 2.29022,3.02795 1.86763,4.093091 -3.14133,7.91772 -5.60109,4.276747 -11.74387,6.164232 -23.92606,7.351733 -12.21562,1.190759 -18.75735,4.254094 -26.96886,12.628864 -9.6981,9.890913 -16.38381,25.221363 -18.08111,41.460283 -0.34913,3.34031 -1.2459,6.58047 -1.99281,7.20036 -2.24901,1.86651 -1.63895,6.51604 1.14197,8.70351 2.3126,1.81909 2.5,2.59691 2.5,10.37641 0,8.35852 -0.0221,8.43098 -3.6124,11.85608 -1.98683,1.89539 -5.84619,6.37117 -8.57636,9.94617 -2.73018,3.575 -5.07424,6.275 -5.20903,6 -0.13479,-0.275 -1.02912,0.28405 -1.9874,1.24233 -0.95828,0.95828 -1.49378,2.14448 -1.19001,2.63599 0.30377,0.49152 -1.20275,4.65747 -3.34784,9.25767 -12.94299,27.75669 -14.73356,56.90981 -5.21889,84.97085 1.60509,4.73377 3.43448,9.57127 4.06532,10.75 1.13812,2.12662 -0.17186,3.16817 -1.42813,1.13549 -0.95535,-1.54579 -3.59211,1.59172 -2.8854,3.43337 0.7994,2.08321 4.00627,2.01702 4.81844,-0.0994 0.47798,-1.24559 1.65374,0.0571 4.5963,5.0926 4.41451,7.55435 8.61189,13.26538 13.8074,18.78657 2.87215,3.0522 3.26972,3.96707 2.25517,5.18953 -0.67743,0.81625 -1.08667,2.73838 -0.90943,4.2714 0.39704,3.4341 3.74453,5.29865 9.54921,5.3189 5.22015,0.0182 6.92695,2.21083 8.28062,10.63766 0.72337,4.50315 1.57066,6.38251 3.62433,8.0391 C 200.81891,368.8461 218.0506,372 235.72377,372 H 245 v 3.5 c 0,1.925 0.3884,3.5 0.86311,3.5 0.47471,0 1.64133,2.47416 2.59249,5.49814 0.95116,3.02398 2.14258,5.75352 2.64761,6.06565 0.50883,0.31447 0.24467,1.52916 -0.59249,2.72436 -2.04225,2.91572 -1.90102,4.94595 0.56186,8.07699 C 252.44692,403.11233 254.10694,404 256,404 c 1.89306,0 3.55308,-0.88767 4.92742,-2.63486 2.46288,-3.13104 2.60411,-5.16127 0.56186,-8.07699 -0.83716,-1.1952 -1.10132,-2.40989 -0.59249,-2.72436 0.50503,-0.31213 1.69645,-3.04167 2.64761,-6.06565 C 264.49556,381.47416 265.66218,379 266.13689,379 266.6116,379 267,377.49332 267,375.65182 v -3.34818 l 14.75,-0.57474 c 26.45424,-1.0308 38.22022,-5.22822 38.27196,-13.65321 0.0121,-1.96663 0.89008,-5.48819 1.95111,-7.82569 1.83243,-4.03692 2.14467,-4.25074 6.22804,-4.26474 5.87303,-0.0201 9.22262,-1.87191 9.62115,-5.3189 0.17724,-1.53302 -0.20893,-3.42734 -0.85815,-4.20961 -0.95119,-1.14611 -0.27856,-2.42539 3.46381,-6.5878 2.55432,-2.84103 6.53777,-8.04558 8.8521,-11.56568 4.58006,-6.96627 8.74266,-9.89669 11.76238,-8.28058 2.70311,1.44666 3.13339,1.22655 2.7859,-1.42515 -0.17327,-1.32226 0.51945,-3.32432 1.54069,-4.45277 1.82248,-2.01382 1.80878,-2.06205 -0.76951,-2.70916 -4.25372,-1.06761 -4.61077,-3.05412 -1.95072,-10.85307 7.37469,-21.62174 7.1528,-48.09803 -0.5946,-70.94903 -5.09912,-15.03989 -15.10976,-31.50395 -24.98178,-41.08646 L 333,174.5941 v -8.40313 c 0,-7.77227 0.18769,-8.55076 2.5,-10.36963 2.79195,-2.19615 3.31057,-6.23473 1.12271,-8.7426 -0.75751,-0.86831 -1.91634,-5.35423 -2.57518,-9.96871 -3.13739,-21.97415 -14.10166,-40.072967 -28.60019,-47.210569 -4.92168,-2.422938 -8.53419,-3.360294 -15.67169,-4.066413 -12.41657,-1.228381 -16.30338,-2.338278 -22.57302,-6.445823 -6.16677,-4.040142 -6.96315,-5.463342 -4.79182,-8.56335 2.32984,-3.326318 1.97949,-7.524481 -0.86536,-10.36933 -1.35,-1.35 -2.925,-2.454545 -3.5,-2.454545 C 257.34399,58 257,49.114166 257,30.994166 V 3.9883312 l 8.75,0.5576478 c 66.24981,4.2221785 120.21484,27.402719 165.10121,70.918809 35.60037,34.513572 59.87737,77.624542 70.69267,125.535692 7.66197,33.94204 7.80894,74.73915 0.39049,108.38722 -8.24192,37.38306 -25.2357,73.20217 -48.91992,103.1123 -24.8869,31.42898 -61.87785,59.70242 -98.13062,75.0046 C 318.28469,502.95297 275.3025,510.06294 237,507.00455 Z m -70.57312,-140.6746 c 0.54992,-1.43307 -0.82284,-3.29932 -2.42688,-3.29932 -0.275,0 -1.07774,0.36658 -1.78387,0.81463 C 160.47298,364.95132 161.78195,368 164,368 c 0.98231,0 2.07441,-0.75152 2.42688,-1.67005 z m 227.89503,-86.83651 c -1.37249,-1.00359 -1.96529,-0.99292 -3.01245,0.0542 -1.59393,1.59392 -0.73892,4.21589 1.52568,4.67868 2.45781,0.50227 3.61379,-3.17762 1.48677,-4.73293 z M 111.54271,253.0691 c -0.31644,-0.512 -0.0911,-1.2302 0.50082,-1.596 0.69485,-0.42944 0.45241,-1.1212 -0.68424,-1.95233 -2.16263,-1.58136 -5.8682,0.1611 -4.31713,2.03004 0.51727,0.62326 0.64439,1.4293 0.2825,1.7912 -0.3619,0.36189 0.56856,0.65799 2.06769,0.65799 1.49913,0 2.46679,-0.41891 2.15036,-0.9309 z m 14.78374,-28.17198 c 1.77754,-0.8099 2.98546,-0.80056 4.54706,0.0352 1.94242,1.03956 2.12649,0.88594 2.12649,-1.77467 0,-1.60201 0.675,-3.47294 1.5,-4.15763 2.17587,-1.80581 1.84171,-3 -0.83948,-3 -1.57968,0 -2.74495,-0.88989 -3.58792,-2.74001 -1.20478,-2.6442 -1.29781,-2.67249 -2.66052,-0.80887 C 126.63544,213.51325 126,214.74625 126,215.19113 126,215.63601 124.875,216 123.5,216 c -2.86391,0 -3.21061,1.16536 -0.9138,3.07154 1.06608,0.88477 1.40218,2.23654 1.025,4.12245 -0.63628,3.18143 -0.59125,3.20967 2.71525,1.70313 z M 383.39014,212.4257 c 0.33226,-0.86587 0.0174,-2.16097 -0.6996,-2.87801 -1.69275,-1.69276 -4.41909,0.19458 -3.90361,2.70231 0.44768,2.17793 3.78598,2.30535 4.60321,0.1757 z m -22.05397,-47.60322 c 0.64349,-2.4607 -1.89201,-4.43599 -3.73294,-2.90816 -1.87608,1.55702 -0.9463,4.65711 1.39677,4.65711 1.03335,0 2.08462,-0.78703 2.33617,-1.74895 z M 253.59616,400.69397 c -3.74977,-2.74189 0.23634,-9.54247 4.15384,-7.08673 2.46343,1.54424 2.82811,5.49686 0.65384,7.08673 C 257.42149,401.41229 256.33976,402 256,402 c -0.33976,0 -1.42149,-0.58771 -2.40384,-1.30603 z m -0.8821,-11.31324 c -1.44468,-1.44468 -0.62137,-1.92618 3.29352,-1.92618 2.28252,0 3.86355,0.44023 3.67298,1.02272 -0.3967,1.2126 -5.93865,1.93131 -6.9665,0.90346 z m 0.78157,-5.38779 c -0.79429,-1.2852 2.01458,-2.39487 4.06775,-1.60699 C 259.56715,383.15487 258.46364,385 256,385 c -1.03508,0 -2.16205,-0.45318 -2.50437,-1.00706 z M 250,379.75 c 0,-0.4125 2.7,-0.75 6,-0.75 3.3,0 6,0.3375 6,0.75 0,0.4125 -2.7,0.75 -6,0.75 -3.3,0 -6,-0.3375 -6,-0.75 z M 251.66667,69.333333 C 250.56183,68.228496 250.9166,63.483397 252.2,62.2 c 1.65185,-1.651849 6.29932,-1.508206 7.74981,0.239528 1.43955,1.734552 1.01609,6.753419 -0.61495,7.2884 -0.64083,0.210191 -1.45865,-0.542605 -1.81739,-1.672881 C 256.68896,65.444645 255.31897,65.419653 254.5,68 c -0.64959,2.046675 -1.64946,2.517204 -2.83333,1.333333 z"
       id="path4009"
       inkscape:connector-curvature="0" />
    <path
       style="fill:#28314b"
       d="M 243,507.38317 C 211.88327,505.29862 183.33059,498.55466 156.03544,486.84269 98.29485,462.06703 49.85099,413.62948 25.15569,355.98002 11.06766,323.09249 4.7378208,291.91376 4.7564531,255.5 4.7846189,200.45443 22.110322,148.8959 55.498419,104.5 76.073885,77.140958 103.69247,53.22313 134.47699,36.104188 L 145.45398,30 H 199.72699 254 V 43.59879 57.19758 L 251,60 c -3.41866,3.193503 -3.93378,7.22183 -1.38823,10.856112 1.53256,2.188032 1.47112,2.449283 -1.25,5.315753 -5.13101,5.405074 -11.40268,7.809327 -24.32055,9.323304 -14.39707,1.68734 -19.10666,3.71996 -27.98654,12.078741 -4.20455,3.95781 -9.60229,7.69581 -15.05468,10.42554 C 142.54684,127.25093 111.29143,163.86712 98.200774,205 82.831713,253.29197 90.113577,306.14838 117.84795,347.61172 176.4109,435.16428 299.72478,447.19484 373.5,372.55326 c 13.33936,-13.496 22.46678,-26.09851 30.45728,-42.05326 10.17077,-20.30815 15.14735,-38.16089 17.21272,-61.74802 1.96778,-22.47269 -0.68277,-43.56637 -8.31891,-66.2037 -13.49676,-40.01117 -42.55232,-74.17079 -79.19397,-93.10564 -7.69556,-3.97674 -13.19075,-7.66945 -17.7118,-11.902145 -8.90002,-8.332374 -13.61273,-10.360712 -27.98654,-12.045326 -12.91787,-1.513977 -19.18954,-3.91823 -24.32055,-9.323304 -2.72112,-2.86647 -2.78256,-3.127721 -1.25,-5.315753 2.35098,-3.356499 2.01142,-7.547368 -0.84278,-10.401567 -1.35,-1.35 -2.925,-2.454545 -3.5,-2.454545 C 257.36797,58 257,53.072464 257,44 V 30 h 54.77301 54.77301 l 10.87085,6.045309 C 415.54706,57.249592 448.37177,88.59622 470.56603,125 532.06666,225.87543 515.4476,354.91682 430.38365,437.00261 391.22766,474.78772 342.05168,498.57313 289,505.38697 c -12.09617,1.55361 -36.68106,2.62048 -46,1.9962 z M 251.5,68 c -0.89712,-2.826565 0.2631,-5.790037 2.55115,-6.516235 4.44337,-1.410271 7.86674,2.048866 6.44885,6.516235 -0.87145,2.745698 -2.33415,2.508965 -3.08936,-0.5 C 257.06554,66.125 256.43075,65 256,65 c -0.43075,0 -1.06554,1.125 -1.41064,2.5 -0.75521,3.008965 -2.21791,3.245698 -3.08936,0.5 z"
       id="path4007"
       inkscape:connector-curvature="0" />
  </g>
</svg>
