<svg xmlns="http://www.w3.org/2000/svg" xmlns:xlink="http://www.w3.org/1999/xlink" xmlns:fi="http://pattern.flaticon.com/" x="0" y="0" width="350" height="350" viewBox="0 0 350 350"><rect x="0px" y="0px" width="100%" height="100%" opacity="1" fill="#d3d3d3"/><defs><g transform="matrix(0.17748739151314305 0.04755760322265318 -0.04755760322265318 0.17748739151314305 318.16117288817696 294.8839766470845)" id="L1_24"><path d="M143.2,475H73c-2.1,0-3.9-1.8-3.9-3.9v-184c0-2.1,1.8-3.9,3.9-3.9h70.2    c2.1,0,3.9,1.8,3.9,3.9v184C147.1,473.2,145.4,475,143.2,475z" id="XMLID_595_" fill="#3c92ca"/><path d="M247.1,9.1v79.2c0,5,4.1,9.1,9.1,9.1s9.1-4.1,9.1-9.1V9.1c0-5-4.1-9.1-9.1-9.1C251.1,0,247.1,4.1,247.1,9.1z"/><path d="M420.7,178h-79.2c-5,0-9.1,4.1-9.1,9.1s4.1,9.1,9.1,9.1h79.2c5,0,9.1-4.1,9.1-9.1S425.7,178,420.7,178z"/><path d="M82.5,187.1c0,5,4.1,9.1,9.1,9.1h79.2c5,0,9.1-4.1,9.1-9.1s-4.1-9.1-9.1-9.1H91.6C86.6,178,82.5,182.1,82.5,187.1z"/><path d="M131.7,60.9c1.7-1.7,2.7-4,2.7-6.4s-1-4.7-2.7-6.4s-4-2.7-6.4-2.7s-4.7,1-6.4,2.7c-1.7,1.7-2.7,4-2.7,6.4s1,4.7,2.7,6.4    s4,2.7,6.4,2.7S130,62.6,131.7,60.9z"/><path d="M156.2,85.4c-3.5,3.5-3.5,9.3,0,12.8c1.8,1.8,4.1,2.7,6.4,2.7s4.7-0.9,6.4-2.7c3.5-3.5,3.5-9.3,0-12.8    C165.5,81.9,159.7,81.9,156.2,85.4z"/><path d="M150.4,79.6c3.5-3.5,3.5-9.3,0-12.8s-9.3-3.5-12.8,0s-3.5,9.3,0,12.8c1.8,1.8,4.1,2.6,6.4,2.6    C146.3,82.3,148.6,81.4,150.4,79.6z"/><path d="M174.9,104.1c-1.7,1.7-2.6,4-2.6,6.4s1,4.7,2.7,6.4c1.7,1.7,4,2.7,6.4,2.7s4.7-1,6.4-2.7s2.7-4,2.7-6.4s-1-4.7-2.7-6.4    c-1.7-1.7-4-2.7-6.4-2.7C178.9,101.4,176.5,102.4,174.9,104.1z"/><path d="M372.1,53.9c-1.7,1.7-2.7,4-2.7,6.4s1,4.7,2.7,6.4c1.7,1.7,4,2.7,6.4,2.7s4.7-1,6.4-2.7c1.7-1.7,2.6-4,2.6-6.4    s-1-4.7-2.6-6.4c-1.7-1.7-4-2.6-6.4-2.6C376.2,51.2,373.8,52.2,372.1,53.9z"/><path d="M341.2,106.6c2.3,0,4.6-0.9,6.4-2.6c3.5-3.5,3.5-9.3,0-12.8s-9.3-3.5-12.8,0s-3.5,9.3,0,12.8    C336.6,105.8,338.9,106.6,341.2,106.6z"/><path d="M353.5,72.5c-3.5,3.5-3.5,9.3,0,12.8c1.8,1.8,4.1,2.7,6.4,2.7s4.6-0.9,6.4-2.7c3.5-3.5,3.5-9.3,0-12.8S357,69,353.5,72.5z    "/><path d="M313.5,116.3c0,2.4,1,4.7,2.7,6.4s4,2.7,6.4,2.7s4.7-1,6.4-2.7c1.7-1.7,2.7-4,2.7-6.4s-1-4.7-2.7-6.4    c-1.7-1.7-4-2.6-6.4-2.6s-4.7,1-6.4,2.6C314.5,111.5,313.5,113.9,313.5,116.3z"/><path d="M428.2,304.2c0-28.2-22.9-51.1-51.1-51.1h-79.4v-57.3c0-24.1-7-41.5-21-51.7c-22-16.2-52.3-6.9-53.5-6.5    c-3.8,1.2-6.3,4.7-6.3,8.6v64.2c0,50.6-58.7,67.9-61.2,68.6c-1.2,0.3-2.2,0.9-3.1,1.6c-3.1-3.9-7.9-6.4-13.2-6.4H76.9    c-9.3,0-16.9,7.6-16.9,16.9v176.1c0,9.3,7.6,16.9,16.9,16.9h62.3c6.2,0,11.7-3.4,14.6-8.5c9.2,8.8,21.6,14.2,35.3,14.2h157    c34.7,0,56.8-18.2,60.7-49.9l21.1-134.3C428.1,305.2,428.2,304.7,428.2,304.2z M138.1,465.9H78.2V292.3h59.9V465.9L138.1,465.9z     M389,437.3c0,0.1,0,0.2,0,0.3c-2.8,22.6-17.2,34.1-42.8,34.1h-157c-18.2,0-33-14.8-33-33V296.5c1.4,0.3,2.9,0.3,4.3-0.1    c3-0.8,74.4-21.6,74.4-86v-56.9c7.8-1.2,21.3-1.9,31,5.2c9,6.6,13.6,19.1,13.6,37.1v66.4c0,5,4.1,9.1,9.1,9.1h88.5    c18,0,32.6,14.4,33,32.3L389,437.3z"/></g><g transform="matrix(0.08166598528623581 0 0 0.08166598528623581 155 330)" id="L1_25"><path d="M260.2,286.5 268,459.3 244.3,480.7 221,459.6 228.5,286.5" id="XMLID_606_" fill="#3c92ca"/><path d="M66.4,404.2c5,0,9.1-4.1,9.1-9.1v-50.4c0-8,3.5-15.5,9.6-20.5c44.9-36.9,93.5-61.4,102.8-66c4.3-2.1,6.9-6.3,6.9-11.1    v-70.9c0-3-1.5-5.9-4-7.5c-6.7-4.5-10.8-12-10.8-20V75.3c0-31.5,25.6-57.1,57.1-57.1h15.8c31.5,0,57.1,25.6,57.1,57.1v73.5    c0,8.1-4,15.5-10.8,20c-2.5,1.7-4,4.5-4,7.5v70.9c0,4.8,2.7,9,6.9,11.1c9.3,4.5,58,29.1,102.8,66c6.1,5,9.6,12.5,9.6,20.5v50.4    c0,5,4.1,9.1,9.1,9.1s9.1-4.1,9.1-9.1v-50.4c0-13.4-5.9-26-16.3-34.5c-42.5-34.9-88.3-59.2-103.1-66.6v-62.8    c9.3-8,14.8-19.6,14.8-32.1V75.3c0-41.5-33.8-75.3-75.3-75.3H237c-41.5,0-75.3,33.8-75.3,75.3v73.5c0,12.4,5.5,24.1,14.8,32.1    v62.8c-14.8,7.4-60.6,31.7-103.1,66.6c-10.3,8.5-16.3,21.1-16.3,34.5v50.4C57.4,400.1,61.4,404.2,66.4,404.2z"/><path d="M269.4,258.5c-5,0-9.1,4.1-9.1,9.1c0,4.5-1.9,8.5-5,11.3c-0.6,0.4-1.2,0.8-1.7,1.4c-2.4,1.7-5.4,2.6-8.6,2.6    c-8.4,0-15.3-6.9-15.3-15.3c0-5-4.1-9.1-9.1-9.1s-9.1,4.1-9.1,9.1c0,8,2.9,15.4,7.6,21.2l-7.4,170.5c-0.1,2.7,1,5.3,3,7.1    l23.3,21.1c1.7,1.6,3.9,2.3,6.1,2.3s4.4-0.8,6.1-2.3l23.7-21.4c2-1.8,3.1-4.4,3-7.1l-7.6-168.5c5.6-6,9.1-14,9.1-22.8    C278.5,262.6,274.4,258.5,269.4,258.5z M244.3,468.5l-14.1-12.7l6.7-155.9c2.6,0.7,5.3,1,8.1,1c2.3,0,4.5-0.2,6.7-0.7l7,155.1    L244.3,468.5z"/></g><g transform="matrix(0.08168265968561172 0 0 0.08168265968561172 242.5 67.5)" id="L1_26"><circle cx="244" cy="47" r="37" id="XMLID_1944_" fill="#a7a9ac"/><circle cx="417" cy="343" r="37" id="XMLID_1942_" fill="#a7a9ac"/><circle cx="72" cy="343" r="37" id="XMLID_1940_" fill="#a7a9ac"/><path d="M464.2,146.5c0-25.9-21-46.9-46.9-46.9c-14.1,0-26.7,6.2-35.3,16.1L289.3,62c1.6-4.7,2.5-9.8,2.5-15.1    c0-25.9-21-46.9-46.9-46.9S198,21,198,46.9c0,5.3,0.9,10.3,2.5,15l-92.7,53.7c-8.6-9.8-21.2-16.1-35.3-16.1    c-25.9,0-46.9,21-46.9,46.9c0,22.4,15.8,41.2,36.8,45.8l0.1,105.2c-21.1,4.6-37,23.4-37,45.8c0,25.9,21,46.9,46.9,46.9    c13.8,0,26.2-6,34.8-15.5l93,53.7c-1.5,4.6-2.3,9.4-2.3,14.5c0,25.9,21,46.9,46.9,46.9s46.9-21,46.9-46.9c0-5.1-0.8-9.9-2.3-14.5    l93-53.7c8.6,9.5,21,15.5,34.8,15.5c25.9,0,46.9-21,46.9-46.9c0-22.7-16.3-41.8-37.8-46V192.4    C447.9,188.3,464.2,169.3,464.2,146.5z M417.3,117.7c15.9,0,28.8,12.9,28.8,28.8s-12.9,28.8-28.8,28.8s-28.8-12.9-28.8-28.8    S401.5,117.7,417.3,117.7z M244.9,18.2c15.9,0,28.8,12.9,28.8,28.8c0,4.9-1.2,9.5-3.4,13.6c-0.2,0.2-0.3,0.4-0.5,0.7    c-0.1,0.2-0.2,0.4-0.3,0.6c-5,8.3-14.2,13.9-24.6,13.9c-15.9,0-28.8-12.9-28.8-28.8S229,18.2,244.9,18.2z M43.7,146.5    c0-15.9,12.9-28.8,28.8-28.8s28.8,12.9,28.8,28.8s-12.9,28.8-28.8,28.8S43.7,162.4,43.7,146.5z M72.5,372.1    c-15.9,0-28.8-12.9-28.8-28.8s12.9-28.8,28.8-28.8s28.8,12.9,28.8,28.8C101.2,359.2,88.3,372.1,72.5,372.1z M244.9,471.6    c-15.9,0-28.8-12.9-28.8-28.8S229,414,244.9,414s28.8,12.9,28.8,28.8S260.8,471.6,244.9,471.6z M280.6,412.5    c-8.6-10.1-21.4-16.6-35.7-16.6s-27.1,6.4-35.7,16.6l-92.6-53.4c1.8-4.9,2.8-10.3,2.8-15.8c0-23.1-16.7-42.3-38.7-46.2l-0.1-104.5    c22-3.8,38.8-23.1,38.8-46.2c0-5.3-0.9-10.4-2.5-15.1l92.7-53.7c8.6,9.9,21.3,16.1,35.4,16.1c14.1,0,26.7-6.2,35.3-16.1l92.7,53.7    c-1.6,4.7-2.5,9.8-2.5,15.1c0,22.7,16.3,41.8,37.8,46v104.8c-21.5,4.2-37.8,23.2-37.8,46c0,5.6,1,10.9,2.8,15.8L280.6,412.5z     M446.1,343.3c0,15.9-12.9,28.8-28.8,28.8s-28.8-12.9-28.8-28.8s12.9-28.8,28.8-28.8S446.1,327.4,446.1,343.3z"/><path d="M288.6,281.1v-32.7c5.5-5.3,8.6-12.6,8.6-20.4v-42.9c0-26.3-21.4-47.7-47.7-47.7h-9.2c-26.3,0-47.7,21.4-47.7,47.7V228    c0,7.8,3.2,15.1,8.6,20.4v32.7c-10.4,5.4-35.4,19.1-58.8,38.3c-3.9,3.2-4.4,8.9-1.2,12.8s8.9,4.4,12.8,1.2    c25.9-21.3,53.9-35.4,59.3-38c3.8-1.9,6.1-5.6,6.1-9.9v-41.4c0-3-1.5-5.9-4-7.5c-2.9-1.9-4.6-5.1-4.6-8.6v-42.9    c0-16.3,13.3-29.6,29.6-29.6h9.2c16.3,0,29.6,13.3,29.6,29.6V228c0,3.4-1.7,6.6-4.6,8.6c-2.5,1.7-4,4.5-4,7.5v41.4    c0,4.2,2.4,8,6.2,9.9c5.4,2.6,33.4,16.8,59.3,38c1.7,1.4,3.7,2.1,5.7,2.1c2.6,0,5.2-1.1,7-3.3c3.2-3.9,2.6-9.6-1.2-12.8    C324,300.2,299,286.4,288.6,281.1z"/></g><g transform="matrix(0.04118616133928299 0 0 0.04118616133928299 77.5 340)" id="L1_27"><path d="M447.5,477.85l30.3-30.3c4-4,4-10.4,0-14.4l-149.2-149.2l-44.7,44.7l149.2,149.2    C437.1,481.85,443.5,481.85,447.5,477.85z" fill="#3c92ca"/><path d="M163.4,67.05c-53.2,0-96.5,43.3-96.5,96.5c0,5,4.1,9.1,9.1,9.1s9.1-4.1,9.1-9.1c0-43.2,35.1-78.3,78.3-78.3    c5,0,9.1-4.1,9.1-9.1C172.5,71.05,168.4,67.05,163.4,67.05z"/><path d="M335,277.55c-3.5-3.5-9.3-3.5-12.8,0l-15.9,15.9l-21.1-21.1c25.9-28.9,41.7-67.1,41.7-108.9    c0-90.1-73.3-163.4-163.4-163.4S0,73.35,0,163.45s73.3,163.4,163.4,163.4c41.8,0,79.9-15.8,108.9-41.7l21.1,21.1l-15.9,15.9    c-1.7,1.7-2.7,4-2.7,6.4s1,4.7,2.7,6.4l141.9,141.9c5.6,5.6,13,8.7,20.9,8.7s15.3-3.1,20.9-8.7l15.7-15.7c5.6-5.6,8.7-13,8.7-20.9    s-3.1-15.3-8.7-20.9L335,277.55z M18.2,163.45c0-80.1,65.2-145.3,145.3-145.3s145.3,65.2,145.3,145.3s-65.2,145.3-145.3,145.3    S18.2,243.55,18.2,163.45z M464.1,448.45l-15.7,15.7c-2.2,2.2-5,3.4-8.1,3.4s-5.9-1.2-8.1-3.4l-135.5-135.5l31.9-31.9l135.5,135.5    c2.2,2.2,3.4,5,3.4,8.1S466.2,446.35,464.1,448.45z"/></g><g transform="matrix(0.04085801914334297 0 0 0.04085801914334297 252.5 340)" id="L1_28"><path d="M317.8,359.8H195.4c-22.2,0-40.3-18.1-40.3-40.3V170.1    c0-22.2,18.1-40.3,40.3-40.3h244.8c22.2,0,40.3,18.1,40.3,40.3v149.4c0,22.2-18.1,40.3-40.3,40.3H301.5" id="XMLID_1220_" fill="#a7a9ac"/><path d="M195.4,368.8h244.8c27.2,0,49.3-22.1,49.3-49.4V170.1c0-27.2-22.1-49.4-49.3-49.4H195.4c-27.2,0-49.3,22.1-49.3,49.4    v149.4C146,346.7,168.2,368.8,195.4,368.8z M164.2,170.1c0-17.2,14-31.2,31.2-31.2h244.8c17.2,0,31.2,14,31.2,31.2v149.4    c0,17.2-14,31.2-31.2,31.2H301.5H195.4c-17.2,0-31.2-14-31.2-31.2V170.1L164.2,170.1z"/><path d="M195.7,319.8c1.8,2,4.3,3.1,6.8,3.1c2.1,0,4.3-0.7,6-2.3l78.3-69l25.4,19.7c1.6,1.3,3.6,1.9,5.6,1.9s3.9-0.6,5.6-1.9    l26.2-20.3l77.5,69.5c1.7,1.6,3.9,2.3,6,2.3c2.5,0,5-1,6.8-3c3.3-3.7,3-9.5-0.7-12.8l-75-67.3l74.6-57.9c4-3.1,4.7-8.8,1.6-12.7    c-3.1-4-8.8-4.7-12.7-1.6l-109.9,85.3L292,232.7l0,0l-83.9-65.1c-4-3.1-9.6-2.4-12.7,1.6c-3.1,4-2.4,9.6,1.6,12.7l75.3,58.5    l-75.7,66.7C192.7,310.4,192.4,316.1,195.7,319.8z"/><path d="M117.6,253.9c5,0,9.1-4.1,9.1-9.1s-4.1-9.1-9.1-9.1h-72c-5,0-9.1,4.1-9.1,9.1s4.1,9.1,9.1,9.1H117.6z"/><path d="M9.1,206h108.5c5,0,9.1-4.1,9.1-9.1s-4.1-9.1-9.1-9.1H9.1c-5,0-9.1,4.1-9.1,9.1C0.1,201.9,4.1,206,9.1,206z"/><path d="M126.7,292.7c0-5-4.1-9.1-9.1-9.1H70.2c-5,0-9.1,4.1-9.1,9.1s4.1,9.1,9.1,9.1h47.4C122.6,301.8,126.7,297.7,126.7,292.7z"/></g><g transform="matrix(0.08157305419445038 0 0 0.08157305419445038 67.5 67.5)" id="L1_29"><circle cx="166" cy="164" r="137" fill="#3c92ca"/><path d="M490.358,377.629c0-0.3,0-0.6-0.1-0.9c0-0.3-0.1-0.6-0.2-0.9s-0.1-0.6-0.2-0.8c-0.1-0.3-0.2-0.5-0.4-0.8    c-0.1-0.3-0.2-0.5-0.4-0.8c-0.1-0.3-0.3-0.5-0.5-0.7s-0.3-0.5-0.5-0.7s-0.4-0.4-0.7-0.6c-0.2-0.2-0.4-0.4-0.6-0.6    s-0.5-0.3-0.8-0.5c-0.2-0.1-0.4-0.3-0.7-0.4l-110.3-54.4c-0.3-0.2-0.6-0.3-1-0.4c-1.9-0.7-47.4-16.6-84.6,0.1l-82.1,29.7    c-0.2,0.1-0.5,0.2-0.7,0.3c-11.8,5.4-18,17.5-15.5,30.2c2.5,12.6,12.7,21.5,25.5,22.1c0.1,0,0.1,0,0.2,0c0.8,0,4.4-0.2,41.8-2.6    c16.3-1,33.1-2.1,34.6-2.2c4.7-0.2,8.6-4,8.7-8.8c0.1-5-3.8-9.2-8.9-9.3c-0.5,0-0.5,0-35.5,2.2c-17.5,1.1-37.1,2.4-40.4,2.6    c-6.3-0.5-7.8-5.8-8.2-7.4c-0.7-3.4,0.3-7.9,5-10.2l82-29.7c0.2-0.1,0.4-0.2,0.7-0.3c28.8-13.1,66.4-1.3,70.9,0.1l49.1,24.2    l-27,63.7c-13.3-8.2-29.5-10.4-44.5-5.9l-110.2,33.1c-13.1,4-27.6,2.5-39.7-4.1l-172.6-93.5c-6.2-3.4-4.2-9.3-3.7-10.5    c0.6-1.6,3.2-6.6,9.5-4.9l134.1,44.7c4.7,1.6,9.9-1,11.5-5.7c1.6-4.8-1-9.9-5.7-11.5l-134.4-44.9c-0.2-0.1-0.3-0.1-0.5-0.1    c-13.3-3.6-26.2,2.8-31.3,15.6c-5.2,12.9-0.3,26.5,11.9,33.2l172.7,93.8c16.3,8.9,35.8,10.9,53.5,5.5l110.2-33.1    c10.1-3,21-1.6,29.9,4.1l56.2,35.4c0.3,0.2,0.5,0.3,0.8,0.4c0.1,0,0.1,0.1,0.2,0.1h0.1c0.1,0.1,0.2,0.1,0.4,0.1    c0.2,0.1,0.5,0.2,0.7,0.3c0.1,0,0.3,0.1,0.4,0.1c0.2,0.1,0.5,0.1,0.7,0.2c0.1,0,0.3,0,0.4,0.1c0.4,0,0.7,0.1,1.1,0.1l0,0l0,0l0,0    l0,0c0.4,0,0.8,0,1.2-0.1c0.1,0,0.3,0,0.4-0.1c0.3,0,0.5-0.1,0.8-0.2c0.1,0,0.3-0.1,0.4-0.1c0.2-0.1,0.5-0.2,0.7-0.3    c0.1-0.1,0.3-0.1,0.4-0.2c0.2-0.1,0.4-0.2,0.7-0.4c0.1-0.1,0.3-0.2,0.4-0.2c0.2-0.1,0.4-0.3,0.6-0.4c0.1-0.1,0.3-0.2,0.4-0.3    c0.2-0.2,0.3-0.3,0.5-0.5c0.1-0.1,0.2-0.2,0.4-0.4c0.2-0.2,0.3-0.4,0.4-0.6c0.1-0.1,0.2-0.3,0.3-0.4c0,0,0-0.1,0.1-0.1    c0-0.1,0.1-0.2,0.1-0.2c0.1-0.2,0.3-0.5,0.4-0.8l40-85.2c0.1-0.3,0.2-0.5,0.3-0.8c0.1-0.3,0.2-0.6,0.3-0.8    c0.1-0.3,0.1-0.6,0.1-0.9s0.1-0.6,0.1-0.9C490.358,378.229,490.358,377.929,490.358,377.629z M469.358,382.229l-31.9,67.9    l-32.3-20.4l27.7-65.4L469.358,382.229z"/><path d="M153.858,173.229h25.4c10.4,0,18.8,8.4,18.8,18.8c0,10.4-8.4,18.8-18.8,18.8h-45.7c-5,0-9.1,4.1-9.1,9.1s4.1,9.1,9.1,9.1    h23.9v17.9c0,5,4.1,9.1,9.1,9.1s9.1-4.1,9.1-9.1v-17.9h3.7c20.4,0,37-16.6,37-37s-16.6-37-37-37h-25.4c-10.4,0-18.8-8.4-18.8-18.8    s8.4-18.8,18.8-18.8h44.9c5,0,9.1-4.1,9.1-9.1s-4.1-9.1-9.1-9.1h-23.1v-17.5c0-5-4.1-9.1-9.1-9.1s-9.1,4.1-9.1,9.1v17.6h-3.7    c-20.4,0-37,16.6-37,37C116.958,156.629,133.558,173.229,153.858,173.229z"/><path d="M166.658,310.229c80.6,0,146.1-65.6,146.1-146.1s-65.6-146.2-146.1-146.2s-146.2,65.6-146.2,146.2    S86.058,310.229,166.658,310.229z M166.658,36.129c70.6,0,128,57.4,128,128s-57.4,128-128,128s-128-57.4-128-128    S96.058,36.129,166.658,36.129z"/></g><g transform="matrix(0.1381021391617372 -0.037004356661398 0.037004356661398 0.1381021391617372 132.14503044578024 150.24980117979203)" id="L1_30"><rect x="43px" y="338px" width="406px" height="66px" fill="#3c92ca"/><path d="M244.85,438.9c-5,0-9.1,4.1-9.1,9.1v23.4h-78.3c-5,0-9.1,4.1-9.1,9.1s4.1,9.1,9.1,9.1h174.8c5,0,9.1-4.1,9.1-9.1    s-4.1-9.1-9.1-9.1h-78.3V448C253.95,442.9,249.85,438.9,244.85,438.9z"/><path d="M53.25,414.1h383.1c12.1,0,21.9-9.8,21.9-21.9V128.5c0-12.1-9.8-21.9-21.9-21.9h-107.2c-5,0-9.1,4.1-9.1,9.1    s4.1,9.1,9.1,9.1h107.2c2.1,0,3.8,1.7,3.8,3.8v263.8c0,2.1-1.7,3.8-3.8,3.8H53.25c-2.1,0-3.8-1.7-3.8-3.8v-43.9h361.4    c5,0,9.1-4.1,9.1-9.1s-4.1-9.1-9.1-9.1h-45.7c-3.8-26.3-26.5-46.6-53.8-46.6c-5,0-9.1,4.1-9.1,9.1s4.1,9.1,9.1,9.1    c17.3,0,31.8,12.2,35.4,28.4h-41.4c-3.5-27.9-25.7-50.1-53.6-53.7v-63.1c0-5-4.1-9.1-9.1-9.1s-9.1,4.1-9.1,9.1V277    c-26.8,4.5-47.8,26.2-51.3,53.3h-41.6c3.6-16.2,18.1-28.4,35.4-28.4c5,0,9.1-4.1,9.1-9.1s-4.1-9.1-9.1-9.1    c-27.3,0-50,20.3-53.8,46.6h-77.4c-1.3-0.7-2.8-1.2-4.4-1.2c-5,0-9.1,4.1-9.1,9.1v54.1C31.45,404.3,41.25,414.1,53.25,414.1z     M243.95,294.1c21.5,0,39.5,15.6,43.2,36.1h-86.3C204.45,309.7,222.35,294.1,243.95,294.1z"/><path d="M40.45,310.5c5,0,9.1-4.1,9.1-9.1v-173c0-2.1,1.7-3.8,3.8-3.8h107.5c5,0,9.1-4.1,9.1-9.1s-4.1-9.1-9.1-9.1H53.25    c-12.1,0-21.9,9.8-21.9,21.9v173C31.45,306.5,35.45,310.5,40.45,310.5z"/><circle cx="244" cy="373" r="10"/><path d="M163.75,227.7c0,5,4.1,9.1,9.1,9.1h18.6v21c0,5,4.1,9.1,9.1,9.1s9.1-4.1,9.1-9.1v-21h1.2c5,0,9.1-4.1,9.1-9.1    s-4.1-9.1-9.1-9.1h-29v-10.1c0-3.4,1-6.7,3-9.5l16.4-23.5c3.9-5.6,6-12.2,6-19.1V77.7c0-7.4,2.7-14.6,7.5-20.2l29.5-34.5    l29.6,34.4c4.9,5.7,7.6,12.9,7.6,20.3v79.2c0,6.3,1.8,12.5,5.2,17.9l15.3,24.1c1.7,2.7,2.6,5.7,2.6,8.9v10.7h-27.5    c-5,0-9.1,4.1-9.1,9.1c0,4.7,3.5,8.4,8,9v21.1c0,5,4.1,9.1,9.1,9.1s9.1-4.1,9.1-9.1v-21h19.4c5,0,9.1-4.1,9.1-9.1v-19.8    c0-6.6-1.9-13-5.4-18.6l-15.3-24.1c-1.6-2.5-2.4-5.3-2.4-8.2V77.8c0-11.8-4.3-23.2-12-32.2l-36.6-42.5c-1.7-2-4.2-3.1-6.9-3.1    c-2.6,0-5.2,1.2-6.9,3.2l-36.3,42.5c-7.6,8.9-11.8,20.3-11.8,32v78.8c0,3.1-0.9,6.2-2.7,8.7l-16.4,23.5    c-4.1,5.9-6.2,12.7-6.2,19.9L163.75,227.7L163.75,227.7z"/></g><g transform="matrix(0.10216591507196426 0 0 0.10216591507196426 62.5 237.5)" id="L1_31"><path d="M463.7,457.8H257.4c-9.2,0-16.6-7.4-16.6-16.6V242.6h239.4v198.6    C480.3,450.3,472.8,457.8,463.7,457.8z" id="XMLID_455_" fill="#3c92ca"/><path d="M62.9,466.8h138.4c5,0,9.1-4.1,9.1-9.1s-4.1-9.1-9.1-9.1H62.9c-24.7,0-44.7-20.1-44.7-44.7V117.1H80v38.3    c0,5,4.1,9.1,9.1,9.1s9.1-4.1,9.1-9.1v-38.3h121.2v38.3c0,5,4.1,9.1,9.1,9.1s9.1-4.1,9.1-9.1v-38.3h61.8v20.4c0,5,4.1,9.1,9.1,9.1    s9.1-4.1,9.1-9.1V108c0-5-4.1-9.1-9.1-9.1h-70.9c-1.2-42.4-36-76.4-78.7-76.4S81.4,56.6,80.2,98.9H9.1c-5,0-9.1,4.1-9.1,9.1v295.9    C0.1,438.6,28.3,466.8,62.9,466.8z M158.7,40.7c32.6,0,59.3,25.9,60.6,58.3H98.2C99.4,66.6,126.1,40.7,158.7,40.7z"/><path d="M296.3,221.4v12.2h-55.5c-5,0-9.1,4.1-9.1,9.1v181.7c0,23.4,19,42.5,42.5,42.5h172.7c23.4,0,42.5-19,42.5-42.5V242.6    c0-5-4.1-9.1-9.1-9.1h-55.5v-12.2c0-35.4-28.8-64.2-64.2-64.2S296.3,186,296.3,221.4z M471.2,251.7v172.7    c0,13.4-10.9,24.3-24.3,24.3H274.2c-13.4,0-24.3-10.9-24.3-24.3V251.7h46.4v25.5c0,5,4.1,9.1,9.1,9.1s9.1-4.1,9.1-9.1v-25.5h92.2    v25.5c0,5,4.1,9.1,9.1,9.1s9.1-4.1,9.1-9.1v-25.5L471.2,251.7L471.2,251.7z M360.5,175.3c25.4,0,46.1,20.7,46.1,46.1v12.2h-92.2    v-12.2C314.5,195.9,335.1,175.3,360.5,175.3z"/></g><g transform="matrix(0.18555667996406555 0 0 0.18555667996406555 217.5 217.5)" id="L1_32"><path d="M109.4,459.991H13c-2.1,0-3.9-1.8-3.9-3.9v-248.4c0-2.1,1.8-3.9,3.9-3.9h96.4    c2.1,0,3.9,1.8,3.9,3.9v248.4C113.3,458.191,111.6,459.991,109.4,459.991z" id="XMLID_1929_" fill="#3c92ca"/><path d="M284.6,20.391c-28.2-20.7-67.2-8.8-68.8-8.3c-3.8,1.2-6.3,4.7-6.3,8.6v85.8c0,29.1-13.8,53.7-41.1,73.2    c-21.1,15.1-42.7,21.3-42.9,21.4c-0.2,0-0.3,0.1-0.5,0.2l-5.1,1.7c-3-4.9-8.3-8.2-14.5-8.2H16.9c-9.3,0-16.9,7.6-16.9,16.9v240.5    c0,9.3,7.6,16.9,16.9,16.9h88.6c8,0,14.7-5.6,16.4-13c11.9,12.7,28.8,20.7,47.6,20.7h209.8c44.6,0,73.1-23.3,78.1-64l26.8-170.2    c3.9-24.7-6.2-49.7-25.8-63.7c-11.1-8-24.2-12.2-37.9-12.2H311.4v-79.6C311.4,55.891,302.4,33.491,284.6,20.391z M104.2,450.891    H18.1v-238h86.1V450.891z M420.5,184.791c9.9,0,19.3,3,27.3,8.8c14,10.1,21.3,28.2,18.4,46.2l-26.7,170.3c0,0.1,0,0.2,0,0.3    c-4.9,39.8-35.4,48.2-60.2,48.2H169.5c-26,0-47.1-21.1-47.1-47.1v-190.2l8.3-2.8c2.9-0.8,25.2-7.6,47.8-23.7    c32.1-22.8,49.1-53.3,49.1-88.2v-78.6c10.4-2,31.3-4,46.4,7.1c12.8,9.4,19.3,26.9,19.3,52v88.7c0,5,4.1,9.1,9.1,9.1h118.1V184.791    z"/></g><g transform="matrix(0.14294466376304626 0 0 0.14294466376304626 315 140)" id="L1_33"><circle cx="245" cy="304" r="20" fill="#a7a9ac"/><path d="M175,344.75c1.7,2.9,4.7,4.5,7.9,4.5c1.5,0,3.1-0.4,4.5-1.2l37.1-21.4c5.5,5.1,12.9,8.3,21,8.3s15.5-3.2,21-8.3l37.1,21.4    c1.4,0.8,3,1.2,4.5,1.2c3.1,0,6.2-1.6,7.9-4.5c2.5-4.3,1-9.9-3.3-12.4l-37.1-21.4c0.5-2.2,0.8-4.5,0.8-6.9    c0-13.9-9.2-25.7-21.9-29.6v-42.8c0-5-4.1-9.1-9.1-9.1s-9.1,4.1-9.1,9.1v42.8c-12.7,3.9-21.9,15.7-21.9,29.6    c0,2.4,0.3,4.7,0.8,6.9l-37.1,21.4C174,334.85,172.5,340.45,175,344.75z M245.6,291.25c7.1,0,12.8,5.7,12.8,12.8    s-5.7,12.8-12.8,12.8s-12.8-5.7-12.8-12.8S238.5,291.25,245.6,291.25z"/><path d="M157.6,234.95c5,0,9.1-4.1,9.1-9.1v-24.6c0-2.5,1.1-4.8,3-6.4c21.5-17.7,44.8-29.4,49.2-31.6c3.6-1.8,6-5.5,6-9.6v-34.6    c0-3-1.5-5.9-4-7.5c-2-1.3-3.2-3.5-3.2-5.9v-35.8c0-12.8,10.4-23.2,23.2-23.2h7.7c12.8,0,23.2,10.4,23.2,23.2v35.8    c0,2.4-1.2,4.6-3.2,5.9c-2.5,1.7-4,4.5-4,7.5v34.6c0,4.1,2.4,7.8,6,9.6c4.5,2.2,27.8,13.9,49.2,31.6c1.9,1.6,3,3.9,3,6.4v24.6    c0,5,4.1,9.1,9.1,9.1s9.1-4.1,9.1-9.1v-24.6c0-8-3.5-15.4-9.6-20.4c-19-15.7-39.4-27-48.6-31.8v-25.8c4.6-4.7,7.2-11,7.2-17.7    v-35.7c0-22.8-18.6-41.4-41.4-41.4h-7.7c-22.8,0-41.4,18.5-41.4,41.4v35.8c0,6.7,2.6,13,7.2,17.7v25.8    c-9.2,4.8-29.5,16.1-48.6,31.8c-6.1,5-9.6,12.5-9.6,20.4v24.6C148.6,230.95,152.6,234.95,157.6,234.95z"/><path d="M355.4,375.35c-9.2,4.8-29.5,16.1-48.6,31.8c-6.1,5-9.6,12.5-9.6,20.4v24.6c0,5,4.1,9.1,9.1,9.1s9.1-4.1,9.1-9.1v-24.6    c0-2.5,1.1-4.8,3-6.4c21.5-17.7,44.8-29.4,49.2-31.6c3.7-1.8,6-5.5,6-9.6v-34.6c0-3-1.5-5.9-4-7.5c-2-1.3-3.2-3.5-3.2-5.9v-35.8    c0-12.8,10.4-23.2,23.2-23.2h7.7c12.8,0,23.2,10.4,23.2,23.2v35.8c0,2.4-1.2,4.6-3.2,5.9c-2.5,1.7-4,4.5-4,7.5v34.6    c0,4.1,2.3,7.8,6,9.6c4.5,2.2,27.8,13.9,49.2,31.6c1.9,1.6,3,3.9,3,6.4v24.6c0,5,4.1,9.1,9.1,9.1s9.1-4.1,9.1-9.1v-24.6    c0-8-3.5-15.4-9.6-20.4c-19.1-15.7-39.4-27-48.6-31.8v-25.8c4.6-4.7,7.2-11,7.2-17.7v-35.8c0-22.8-18.6-41.4-41.4-41.4h-7.7    c-22.8,0-41.4,18.6-41.4,41.4v35.8c0,6.7,2.6,13,7.2,17.7L355.4,375.35L355.4,375.35z"/><path d="M9.1,461.15c5,0,9.1-4.1,9.1-9.1v-24.6c0-2.5,1.1-4.8,3-6.4c21.5-17.7,44.8-29.4,49.2-31.6c3.7-1.8,6-5.5,6-9.6v-34.6    c0-3-1.5-5.9-4-7.5c-2-1.3-3.2-3.5-3.2-5.9v-35.8c0-12.8,10.4-23.2,23.2-23.2h7.7c12.8,0,23.2,10.4,23.2,23.2v35.8    c0,2.4-1.2,4.6-3.2,5.9c-2.5,1.7-4,4.5-4,7.5v34.6c0,4.1,2.3,7.8,6,9.6c4.5,2.2,27.8,13.9,49.2,31.6c1.9,1.6,3,3.9,3,6.4v24.6    c0,5,4.1,9.1,9.1,9.1s9.1-4.1,9.1-9.1v-24.6c0-8-3.5-15.4-9.6-20.4c-19.1-15.7-39.4-27-48.6-31.8v-25.8c4.6-4.7,7.2-11,7.2-17.7    v-35.8c0-22.8-18.6-41.4-41.4-41.4h-7.7c-22.8,0-41.4,18.6-41.4,41.4v35.8c0,6.7,2.6,13,7.2,17.7v25.8    c-9.2,4.8-29.5,16.1-48.6,31.8c-6.1,5-9.6,12.5-9.6,20.4v24.6C0,457.15,4.1,461.15,9.1,461.15z"/></g></defs><g fi:class="KUsePattern"><pattern id="pattern_L1_24" width="350" height="350" patternUnits="userSpaceOnUse"><use xlink:href="#L1_24" x="-350" y="-350"/><use xlink:href="#L1_24" x="0" y="-350"/><use xlink:href="#L1_24" x="350" y="-350"/><use xlink:href="#L1_24" x="-350" y="0"/><use xlink:href="#L1_24" x="0" y="0"/><use xlink:href="#L1_24" x="350" y="0"/><use xlink:href="#L1_24" x="-350" y="350"/><use xlink:href="#L1_24" x="0" y="350"/><use xlink:href="#L1_24" x="350" y="350"/></pattern><rect x="0" y="0" width="100%" height="100%" fill="url(#pattern_L1_24)"/></g><g fi:class="KUsePattern"><pattern id="pattern_L1_25" width="350" height="350" patternUnits="userSpaceOnUse"><use xlink:href="#L1_25" x="-350" y="-350"/><use xlink:href="#L1_25" x="0" y="-350"/><use xlink:href="#L1_25" x="350" y="-350"/><use xlink:href="#L1_25" x="-350" y="0"/><use xlink:href="#L1_25" x="0" y="0"/><use xlink:href="#L1_25" x="350" y="0"/><use xlink:href="#L1_25" x="-350" y="350"/><use xlink:href="#L1_25" x="0" y="350"/><use xlink:href="#L1_25" x="350" y="350"/></pattern><rect x="0" y="0" width="100%" height="100%" fill="url(#pattern_L1_25)"/></g><g fi:class="KUsePattern"><pattern id="pattern_L1_26" width="350" height="350" patternUnits="userSpaceOnUse"><use xlink:href="#L1_26" x="-350" y="-350"/><use xlink:href="#L1_26" x="0" y="-350"/><use xlink:href="#L1_26" x="350" y="-350"/><use xlink:href="#L1_26" x="-350" y="0"/><use xlink:href="#L1_26" x="0" y="0"/><use xlink:href="#L1_26" x="350" y="0"/><use xlink:href="#L1_26" x="-350" y="350"/><use xlink:href="#L1_26" x="0" y="350"/><use xlink:href="#L1_26" x="350" y="350"/></pattern><rect x="0" y="0" width="100%" height="100%" fill="url(#pattern_L1_26)"/></g><g fi:class="KUsePattern"><pattern id="pattern_L1_27" width="350" height="350" patternUnits="userSpaceOnUse"><use xlink:href="#L1_27" x="-350" y="-350"/><use xlink:href="#L1_27" x="0" y="-350"/><use xlink:href="#L1_27" x="350" y="-350"/><use xlink:href="#L1_27" x="-350" y="0"/><use xlink:href="#L1_27" x="0" y="0"/><use xlink:href="#L1_27" x="350" y="0"/><use xlink:href="#L1_27" x="-350" y="350"/><use xlink:href="#L1_27" x="0" y="350"/><use xlink:href="#L1_27" x="350" y="350"/></pattern><rect x="0" y="0" width="100%" height="100%" fill="url(#pattern_L1_27)"/></g><g fi:class="KUsePattern"><pattern id="pattern_L1_28" width="350" height="350" patternUnits="userSpaceOnUse"><use xlink:href="#L1_28" x="-350" y="-350"/><use xlink:href="#L1_28" x="0" y="-350"/><use xlink:href="#L1_28" x="350" y="-350"/><use xlink:href="#L1_28" x="-350" y="0"/><use xlink:href="#L1_28" x="0" y="0"/><use xlink:href="#L1_28" x="350" y="0"/><use xlink:href="#L1_28" x="-350" y="350"/><use xlink:href="#L1_28" x="0" y="350"/><use xlink:href="#L1_28" x="350" y="350"/></pattern><rect x="0" y="0" width="100%" height="100%" fill="url(#pattern_L1_28)"/></g><g fi:class="KUsePattern"><pattern id="pattern_L1_29" width="350" height="350" patternUnits="userSpaceOnUse"><use xlink:href="#L1_29" x="-350" y="-350"/><use xlink:href="#L1_29" x="0" y="-350"/><use xlink:href="#L1_29" x="350" y="-350"/><use xlink:href="#L1_29" x="-350" y="0"/><use xlink:href="#L1_29" x="0" y="0"/><use xlink:href="#L1_29" x="350" y="0"/><use xlink:href="#L1_29" x="-350" y="350"/><use xlink:href="#L1_29" x="0" y="350"/><use xlink:href="#L1_29" x="350" y="350"/></pattern><rect x="0" y="0" width="100%" height="100%" fill="url(#pattern_L1_29)"/></g><g fi:class="KUsePattern"><pattern id="pattern_L1_30" width="350" height="350" patternUnits="userSpaceOnUse"><use xlink:href="#L1_30" x="-350" y="-350"/><use xlink:href="#L1_30" x="0" y="-350"/><use xlink:href="#L1_30" x="350" y="-350"/><use xlink:href="#L1_30" x="-350" y="0"/><use xlink:href="#L1_30" x="0" y="0"/><use xlink:href="#L1_30" x="350" y="0"/><use xlink:href="#L1_30" x="-350" y="350"/><use xlink:href="#L1_30" x="0" y="350"/><use xlink:href="#L1_30" x="350" y="350"/></pattern><rect x="0" y="0" width="100%" height="100%" fill="url(#pattern_L1_30)"/></g><g fi:class="KUsePattern"><pattern id="pattern_L1_31" width="350" height="350" patternUnits="userSpaceOnUse"><use xlink:href="#L1_31" x="-350" y="-350"/><use xlink:href="#L1_31" x="0" y="-350"/><use xlink:href="#L1_31" x="350" y="-350"/><use xlink:href="#L1_31" x="-350" y="0"/><use xlink:href="#L1_31" x="0" y="0"/><use xlink:href="#L1_31" x="350" y="0"/><use xlink:href="#L1_31" x="-350" y="350"/><use xlink:href="#L1_31" x="0" y="350"/><use xlink:href="#L1_31" x="350" y="350"/></pattern><rect x="0" y="0" width="100%" height="100%" fill="url(#pattern_L1_31)"/></g><g fi:class="KUsePattern"><pattern id="pattern_L1_32" width="350" height="350" patternUnits="userSpaceOnUse"><use xlink:href="#L1_32" x="-350" y="-350"/><use xlink:href="#L1_32" x="0" y="-350"/><use xlink:href="#L1_32" x="350" y="-350"/><use xlink:href="#L1_32" x="-350" y="0"/><use xlink:href="#L1_32" x="0" y="0"/><use xlink:href="#L1_32" x="350" y="0"/><use xlink:href="#L1_32" x="-350" y="350"/><use xlink:href="#L1_32" x="0" y="350"/><use xlink:href="#L1_32" x="350" y="350"/></pattern><rect x="0" y="0" width="100%" height="100%" fill="url(#pattern_L1_32)"/></g><g fi:class="KUsePattern"><pattern id="pattern_L1_33" width="350" height="350" patternUnits="userSpaceOnUse"><use xlink:href="#L1_33" x="-350" y="-350"/><use xlink:href="#L1_33" x="0" y="-350"/><use xlink:href="#L1_33" x="350" y="-350"/><use xlink:href="#L1_33" x="-350" y="0"/><use xlink:href="#L1_33" x="0" y="0"/><use xlink:href="#L1_33" x="350" y="0"/><use xlink:href="#L1_33" x="-350" y="350"/><use xlink:href="#L1_33" x="0" y="350"/><use xlink:href="#L1_33" x="350" y="350"/></pattern><rect x="0" y="0" width="100%" height="100%" fill="url(#pattern_L1_33)"/></g></svg>